<svg xmlns="http://www.w3.org/2000/svg" version="1.1" xmlns:xlink="http://www.w3.org/1999/xlink" xmlns:svgjs="http://svgjs.dev/svgjs" width="1500" height="1500" viewBox="0 0 1500 1500"><rect width="1500" height="1500" fill="#040046"></rect><g transform="matrix(0.6666666666666666,0,0,0.6666666666666666,249.39393939393938,586.8524362028174)"><svg viewBox="0 0 396 129" data-background-color="#040046" preserveAspectRatio="xMidYMid meet" height="488" width="1500" xmlns="http://www.w3.org/2000/svg" xmlns:xlink="http://www.w3.org/1999/xlink"><g id="tight-bounds" transform="matrix(1,0,0,1,0.2400000000000091,0.19068359580907668)"><svg viewBox="0 0 395.52 128.6183766725027" height="128.6183766725027" width="395.52"><rect width="395.52" height="128.61863280838188" fill="url(#17521aed-243d-40f1-bf91-0f59f81894cb)" mask="url(#837ae29d-f38f-4835-86e5-eedf25610167)" data-fill-palette-color="tertiary"></rect><g><svg viewBox="0 0 599.0723684357055 194.81117399259682" height="128.6183766725027" width="395.52"><g><svg viewBox="0 0 395.52 194.81117399259682" height="194.81117399259682" width="395.52"><g id="textblocktransform"><svg viewBox="0 0 395.52 194.81117399259682" height="194.81117399259682" width="395.52" id="textblock"><g><svg viewBox="0 0 395.52 85.68786507610037" height="85.68786507610037" width="395.52"><g transform="matrix(1,0,0,1,0,0)"><svg width="395.52" viewBox="4.96 -38.09 178.04 38.580000000000005" height="85.68786507610037" data-palette-color="url(#883edca6-575d-46c0-837f-651fbca12142)"></svg></g></svg></g><g transform="matrix(1,0,0,1,0,126.14556194751131)"><svg viewBox="0 0 395.52 68.66561204508552" height="68.66561204508552" width="395.52"><path d="M395.52 0l-11.444 34.333 11.444 34.333h-395.52l11.444-34.333-11.444-34.333z" data-fill-palette-color="tertiary" opacity="1" fill="url(#17521aed-243d-40f1-bf91-0f59f81894cb)"></path><g transform="matrix(1,0,0,1,75.54432,20.22884843570547)"><svg width="244.43135999999998" viewBox="3 -39.65 437.55 50.5" height="28.20791517367459" data-palette-color="#000000"><path d="M3-34.55L20.15-34.55 19.5-29.8 9.35-29.8 9.35-19.9 18.2-19.9 18.2-15.2 9.35-15.2 9.35-4.8 20.15-4.8 20.15 0 3 0 3-34.55ZM37.45-37.7L43.6-37.05 43.6 0 38.15 0 37.85-3.05Q35.5 0.75 31.8 0.75L31.8 0.75Q27.7 0.75 25.52-2.93 23.35-6.6 23.35-13.2L23.35-13.2Q23.35-17.4 24.47-20.58 25.6-23.75 27.6-25.45 29.6-27.15 32.2-27.15L32.2-27.15Q35.4-27.15 37.45-24.5L37.45-24.5 37.45-37.7ZM33.55-3.9Q34.7-3.9 35.62-4.7 36.55-5.5 37.45-7L37.45-7 37.45-19.85Q35.85-22.55 33.8-22.55L33.8-22.55Q29.75-22.55 29.75-13.25L29.75-13.25Q29.75-8.2 30.75-6.05 31.75-3.9 33.55-3.9L33.55-3.9ZM67.45-26.45L67.45 0 62.1 0 61.8-3.35Q60.55-1.3 59-0.28 57.45 0.75 55.4 0.75L55.4 0.75Q52.5 0.75 50.82-1.3 49.15-3.35 49.15-6.65L49.15-6.65 49.15-26.45 55.3-26.45 55.3-7Q55.3-3.9 57.4-3.9L57.4-3.9Q58.6-3.9 59.55-4.83 60.5-5.75 61.3-7.45L61.3-7.45 61.3-26.45 67.45-26.45ZM82.64-27.15Q84.79-27.15 86.54-26.43 88.29-25.7 89.89-24.15L89.89-24.15 87.24-20.65Q86.14-21.55 85.17-21.98 84.19-22.4 83.04-22.4L83.04-22.4Q80.79-22.4 79.64-20.28 78.49-18.15 78.49-13.1L78.49-13.1Q78.49-8.2 79.67-6.2 80.84-4.2 83.04-4.2L83.04-4.2Q84.14-4.2 85.04-4.6 85.94-5 87.14-5.85L87.14-5.85 89.89-2.3Q86.69 0.75 82.74 0.75L82.74 0.75Q77.64 0.75 74.82-2.73 71.99-6.2 71.99-13L71.99-13Q71.99-17.4 73.29-20.6 74.59-23.8 77.02-25.48 79.44-27.15 82.64-27.15L82.64-27.15ZM109.84-6.4Q109.84-5.1 110.19-4.48 110.54-3.85 111.34-3.45L111.34-3.45 110.09 0.65Q108.04 0.4 106.82-0.45 105.59-1.3 104.99-3.05L104.99-3.05Q102.69 0.75 98.54 0.75L98.54 0.75Q95.24 0.75 93.29-1.48 91.34-3.7 91.34-7.4L91.34-7.4Q91.34-11.7 94.02-13.95 96.69-16.2 101.79-16.2L101.79-16.2 103.84-16.2 103.84-18.05Q103.84-20.55 102.97-21.58 102.09-22.6 100.14-22.6L100.14-22.6Q97.79-22.6 94.29-21.3L94.29-21.3 92.89-25.3Q94.89-26.2 97.04-26.68 99.19-27.15 101.14-27.15L101.14-27.15Q109.84-27.15 109.84-18.35L109.84-18.35 109.84-6.4ZM100.19-3.7Q102.59-3.7 103.84-7L103.84-7 103.84-12.55 102.39-12.55Q99.84-12.55 98.67-11.4 97.49-10.25 97.49-7.85L97.49-7.85Q97.49-5.8 98.19-4.75 98.89-3.7 100.19-3.7L100.19-3.7ZM126.79-5L128.94-1.2Q126.49 0.75 123.19 0.75L123.19 0.75Q119.74 0.75 117.94-1.23 116.14-3.2 116.14-6.6L116.14-6.6 116.14-22 113.04-22 113.04-26.45 116.14-26.45 116.14-32.3 122.29-33.05 122.29-26.45 127.29-26.45 126.69-22 122.29-22 122.29-6.6Q122.29-4.2 124.34-4.2L124.34-4.2Q124.99-4.2 125.49-4.38 125.99-4.55 126.79-5L126.79-5ZM131.49-26.45L137.64-26.45 137.64 0 131.49 0 131.49-26.45ZM134.54-39.65Q136.19-39.65 137.21-38.6 138.24-37.55 138.24-35.9L138.24-35.9Q138.24-34.3 137.21-33.25 136.19-32.2 134.54-32.2L134.54-32.2Q132.89-32.2 131.86-33.25 130.84-34.3 130.84-35.9L130.84-35.9Q130.84-37.55 131.86-38.6 132.89-39.65 134.54-39.65L134.54-39.65ZM152.73-27.15Q157.73-27.15 160.51-23.65 163.28-20.15 163.28-13.25L163.28-13.25Q163.28-6.65 160.48-2.95 157.68 0.75 152.73 0.75L152.73 0.75Q147.78 0.75 144.98-2.88 142.18-6.5 142.18-13.25L142.18-13.25Q142.18-19.95 144.98-23.55 147.78-27.15 152.73-27.15L152.73-27.15ZM152.73-22.5Q150.58-22.5 149.58-20.38 148.58-18.25 148.58-13.25L148.58-13.25Q148.58-8.2 149.58-6.08 150.58-3.95 152.73-3.95L152.73-3.95Q154.88-3.95 155.88-6.08 156.88-8.2 156.88-13.25L156.88-13.25Q156.88-18.3 155.88-20.4 154.88-22.5 152.73-22.5L152.73-22.5ZM180.18-27.15Q183.03-27.15 184.68-25.1 186.33-23.05 186.33-19.6L186.33-19.6 186.33 0 180.18 0 180.18-18.9Q180.18-20.8 179.66-21.63 179.13-22.45 178.13-22.45L178.13-22.45Q176.03-22.45 173.98-18.5L173.98-18.5 173.98 0 167.83 0 167.83-26.45 173.18-26.45 173.63-23Q174.98-25.1 176.51-26.13 178.03-27.15 180.18-27.15L180.18-27.15ZM211.43-33.05Q210.03-33.05 209.35-32.3 208.68-31.55 208.68-30L208.68-30 208.68-26.45 213.73-26.45 213.03-22 208.68-22 208.68 0 202.53 0 202.53-22 199.23-22 199.23-26.45 202.53-26.45 202.53-29.8Q202.53-33.4 204.63-35.55 206.73-37.7 210.63-37.7L210.63-37.7Q213.68-37.7 216.53-36.2L216.53-36.2 214.83-32.2Q213.08-33.05 211.43-33.05L211.43-33.05ZM225.92-27.15Q230.92-27.15 233.7-23.65 236.47-20.15 236.47-13.25L236.47-13.25Q236.47-6.65 233.67-2.95 230.87 0.75 225.92 0.75L225.92 0.75Q220.97 0.75 218.17-2.88 215.37-6.5 215.37-13.25L215.37-13.25Q215.37-19.95 218.17-23.55 220.97-27.15 225.92-27.15L225.92-27.15ZM225.92-22.5Q223.77-22.5 222.77-20.38 221.77-18.25 221.77-13.25L221.77-13.25Q221.77-8.2 222.77-6.08 223.77-3.95 225.92-3.95L225.92-3.95Q228.07-3.95 229.07-6.08 230.07-8.2 230.07-13.25L230.07-13.25Q230.07-18.3 229.07-20.4 228.07-22.5 225.92-22.5L225.92-22.5ZM252.67-27.1Q253.82-27.1 254.72-26.75L254.72-26.75 253.72-20.85Q252.72-21.1 251.87-21.1L251.87-21.1Q249.97-21.1 248.87-19.45 247.77-17.8 247.17-14.55L247.17-14.55 247.17 0 241.02 0 241.02-26.45 246.37-26.45 246.82-21.85Q248.67-27.1 252.67-27.1L252.67-27.1ZM286.27-13.85Q286.27-13.4 286.12-11.3L286.12-11.3 272.47-11.3Q272.67-7.2 273.89-5.58 275.12-3.95 277.37-3.95L277.37-3.95Q278.92-3.95 280.17-4.48 281.42-5 282.87-6.15L282.87-6.15 285.42-2.65Q281.92 0.75 277.02 0.75L277.02 0.75Q271.82 0.75 269.04-2.85 266.27-6.45 266.27-13L266.27-13Q266.27-19.55 268.92-23.35 271.57-27.15 276.42-27.15L276.42-27.15Q281.07-27.15 283.67-23.78 286.27-20.4 286.27-13.85L286.27-13.85ZM280.27-15.3L280.27-15.65Q280.27-19.4 279.37-21.13 278.47-22.85 276.47-22.85L276.47-22.85Q274.62-22.85 273.64-21.18 272.67-19.5 272.47-15.3L272.47-15.3 280.27-15.3ZM302.96-26.45L309.01-26.45 302.11 0 294.86 0 287.76-26.45 294.11-26.45 298.46-4.95 302.96-26.45ZM330.76-13.85Q330.76-13.4 330.61-11.3L330.61-11.3 316.96-11.3Q317.16-7.2 318.39-5.58 319.61-3.95 321.86-3.95L321.86-3.95Q323.41-3.95 324.66-4.48 325.91-5 327.36-6.15L327.36-6.15 329.91-2.65Q326.41 0.75 321.51 0.75L321.51 0.75Q316.31 0.75 313.54-2.85 310.76-6.45 310.76-13L310.76-13Q310.76-19.55 313.41-23.35 316.06-27.15 320.91-27.15L320.91-27.15Q325.56-27.15 328.16-23.78 330.76-20.4 330.76-13.85L330.76-13.85ZM324.76-15.3L324.76-15.65Q324.76-19.4 323.86-21.13 322.96-22.85 320.96-22.85L320.96-22.85Q319.11-22.85 318.14-21.18 317.16-19.5 316.96-15.3L316.96-15.3 324.76-15.3ZM346.71-27.1Q347.86-27.1 348.76-26.75L348.76-26.75 347.76-20.85Q346.76-21.1 345.91-21.1L345.91-21.1Q344.01-21.1 342.91-19.45 341.81-17.8 341.21-14.55L341.21-14.55 341.21 0 335.06 0 335.06-26.45 340.41-26.45 340.86-21.85Q342.71-27.1 346.71-27.1L346.71-27.1ZM370.26-26.45L363.26 0.1Q361.96 4.9 359.06 7.65 356.16 10.4 351.31 10.85L351.31 10.85 350.61 6.5Q353.76 5.85 355.33 4.42 356.91 3 357.81 0L357.81 0 355.51 0 348.81-26.45 355.06-26.45 359.46-4.1 364.16-26.45 370.26-26.45ZM382.55-27.15Q387.55-27.15 390.33-23.65 393.1-20.15 393.1-13.25L393.1-13.25Q393.1-6.65 390.3-2.95 387.5 0.75 382.55 0.75L382.55 0.75Q377.6 0.75 374.8-2.88 372-6.5 372-13.25L372-13.25Q372-19.95 374.8-23.55 377.6-27.15 382.55-27.15L382.55-27.15ZM382.55-22.5Q380.4-22.5 379.4-20.38 378.4-18.25 378.4-13.25L378.4-13.25Q378.4-8.2 379.4-6.08 380.4-3.95 382.55-3.95L382.55-3.95Q384.7-3.95 385.7-6.08 386.7-8.2 386.7-13.25L386.7-13.25Q386.7-18.3 385.7-20.4 384.7-22.5 382.55-22.5L382.55-22.5ZM410-27.15Q412.85-27.15 414.5-25.1 416.15-23.05 416.15-19.6L416.15-19.6 416.15 0 410 0 410-18.9Q410-20.8 409.48-21.63 408.95-22.45 407.95-22.45L407.95-22.45Q405.85-22.45 403.8-18.5L403.8-18.5 403.8 0 397.65 0 397.65-26.45 403-26.45 403.45-23Q404.8-25.1 406.33-26.13 407.85-27.15 410-27.15L410-27.15ZM440.55-13.85Q440.55-13.4 440.4-11.3L440.4-11.3 426.75-11.3Q426.95-7.2 428.17-5.58 429.4-3.95 431.65-3.95L431.65-3.95Q433.2-3.95 434.45-4.48 435.7-5 437.15-6.15L437.15-6.15 439.7-2.65Q436.2 0.75 431.3 0.75L431.3 0.75Q426.1 0.75 423.32-2.85 420.55-6.45 420.55-13L420.55-13Q420.55-19.55 423.2-23.35 425.85-27.15 430.7-27.15L430.7-27.15Q435.35-27.15 437.95-23.78 440.55-20.4 440.55-13.85L440.55-13.85ZM434.55-15.3L434.55-15.65Q434.55-19.4 433.65-21.13 432.75-22.85 430.75-22.85L430.75-22.85Q428.9-22.85 427.92-21.18 426.95-19.5 426.75-15.3L426.75-15.3 434.55-15.3Z" opacity="1" transform="matrix(1,0,0,1,0,0)" fill="#000000" class="slogan-text-1" data-fill-palette-color="quaternary" id="text-1"></path></svg></g></svg></g></svg></g></svg></g><g transform="matrix(1,0,0,1,415.74884843570544,5.786679303598788)"><svg viewBox="0 0 183.32352 183.23781538539924" height="183.23781538539924" width="183.32352"><g><svg xmlns="http://www.w3.org/2000/svg" xmlns:xlink="http://www.w3.org/1999/xlink" version="1.1" x="0" y="0" viewBox="0.7607695154586737 0.7749999999999999 30.439230484541326 30.425" enable-background="new 0 0 32 32" xml:space="preserve" height="183.23781538539924" width="183.32352" class="icon-icon-0" data-fill-palette-color="accent" id="icon-0"></svg></g></svg></g></svg></g><defs></defs><mask id="df944fbe-4f78-4b4a-96eb-79d48ae68513"><g id="SvgjsG2868"><svg viewBox="0 0 395.52 128.6183766725027" height="128.6183766725027" width="395.52"><g><svg viewBox="0 0 599.0723684357055 194.81117399259682" height="128.6183766725027" width="395.52"><g><svg viewBox="0 0 395.52 194.81117399259682" height="194.81117399259682" width="395.52"><g id="SvgjsG2867"><svg viewBox="0 0 395.52 194.81117399259682" height="194.81117399259682" width="395.52" id="SvgjsSvg2866"><g><svg viewBox="0 0 395.52 85.68786507610037" height="85.68786507610037" width="395.52"><g transform="matrix(1,0,0,1,0,0)"><svg width="395.52" viewBox="4.96 -38.09 178.04 38.580000000000005" height="85.68786507610037" data-palette-color="url(#883edca6-575d-46c0-837f-651fbca12142)"><path d="M28.47 0L4.96 0 4.96-35.55 28.37-35.55 28.2-31.98 9.69-31.98 9.69-20.19 26.78-20.19 26.78-16.6 9.69-16.6 9.69-3.61 28.76-3.61 28.47 0ZM46.21 0.49L46.21 0.49Q42.5 0.49 39.96-1.26 37.42-3 36.13-6.1 34.84-9.2 34.84-13.28L34.84-13.28Q34.84-17.41 36.19-20.47 37.55-23.54 40.1-25.23 42.65-26.93 46.19-26.93L46.19-26.93Q48.73-26.93 50.47-26.17 52.22-25.42 53.34-24.22L53.34-24.22 53.22-28.15 53.22-37.6 57.81-38.09 57.81 0 53.98 0 53.73-2.88Q52.29-1.17 50.25-0.34 48.22 0.49 46.21 0.49ZM46.68-2.81L46.68-2.81Q48.75-2.81 50.47-3.5 52.19-4.2 53.37-5.62L53.37-5.62 53.37-20.63Q52.34-22.12 50.57-22.9 48.8-23.68 46.65-23.68L46.65-23.68Q44.82-23.68 43.47-22.99 42.11-22.29 41.21-20.96 40.31-19.63 39.85-17.71 39.4-15.8 39.4-13.35L39.4-13.35Q39.4-10.03 40.18-7.68 40.96-5.32 42.59-4.06 44.21-2.81 46.68-2.81ZM75.26 0.49L75.26 0.49Q70.58 0.49 68.17-2.1 65.77-4.69 65.77-9.86L65.77-9.86 65.77-26.42 70.21-26.42 70.21-9.96Q70.21-7.69 70.76-6.08 71.31-4.47 72.55-3.61 73.8-2.76 75.87-2.76L75.87-2.76Q77.97-2.76 79.4-3.38 80.83-4 81.75-4.83 82.66-5.66 83.15-6.32L83.15-6.32 83.15-26.42 87.57-26.42 87.57 0 83.74 0 83.49-3.3Q82.17-1.64 80.17-0.57 78.17 0.49 75.26 0.49ZM103.41 0.02L99.43 0.02 92.2-26.42 96.38-26.42 101.65-5.81 107.76-26.42 112.39-26.42 118.89-5.74 123.8-26.42 127.85-26.42 120.96 0.02 116.96 0.02 110.17-22.14 103.41 0.02ZM143.76 0.49L143.76 0.49Q140.2 0.49 137.33-1.15 134.46-2.78 132.79-5.85 131.12-8.91 131.12-13.13L131.12-13.13Q131.12-17.53 132.75-20.63 134.39-23.73 137.15-25.37 139.91-27 143.23-27L143.23-27Q146.47-27 148.77-25.56 151.06-24.12 152.3-21.46 153.53-18.8 153.53-15.14L153.53-15.14Q153.53-14.77 153.47-14.14 153.41-13.5 153.36-12.99 153.31-12.48 153.31-12.43L153.31-12.43 135.66-12.43Q135.85-9.06 137.01-6.93 138.17-4.81 140.07-3.81 141.96-2.81 144.33-2.81L144.33-2.81Q146.6-2.81 148.21-3.45 149.82-4.1 151.45-5.03L151.45-5.03 151.77-5.03 152.8-2.12Q151.16-1 148.85-0.26 146.55 0.49 143.76 0.49ZM135.73-15.31L135.73-15.31 149.72-15.31Q149.67-19.29 148.15-21.5 146.62-23.71 143.45-23.71L143.45-23.71Q140.25-23.71 138.16-21.45 136.07-19.19 135.73-15.31ZM171.74 0.49L171.74 0.49Q169.15 0.49 167.21-0.45 165.27-1.39 164.07-2.81L164.07-2.81 163.81 0 160.19 0 160.19-37.6 164.64-38.09 164.64-27.08 164.47-21.53Q165.37-23.73 166.67-24.91 167.98-26.1 169.52-26.55 171.06-27 172.57-27L172.57-27Q176.16-27 178.47-25.23 180.77-23.46 181.88-20.36 183-17.26 183-13.26L183-13.26Q183-9.13 181.68-6.04 180.36-2.95 177.86-1.23 175.35 0.49 171.74 0.49ZM171.47-2.81L171.47-2.81Q173.91-2.81 175.45-4.08 176.99-5.35 177.72-7.69 178.45-10.03 178.45-13.23L178.45-13.23Q178.45-16.28 177.86-18.64 177.26-21 175.84-22.34 174.43-23.68 171.94-23.68L171.94-23.68Q169.32-23.68 167.66-22.44 166-21.19 165.23-18.95 164.47-16.7 164.47-13.65L164.47-13.65 164.47-6.1Q165.27-5 166.34-4.27 167.42-3.54 168.73-3.17 170.03-2.81 171.47-2.81Z" opacity="1" transform="matrix(1,0,0,1,0,0)" fill="white" class="wordmark-text-0" id="SvgjsPath2865"></path></svg></g></svg></g><g transform="matrix(1,0,0,1,0,126.14556194751131)"><svg viewBox="0 0 395.52 68.66561204508552" height="68.66561204508552" width="395.52"><path d="M395.52 0l-11.444 34.333 11.444 34.333h-395.52l11.444-34.333-11.444-34.333z" opacity="1" fill="black"></path><g transform="matrix(1,0,0,1,75.54432,20.22884843570547)"><svg width="244.43135999999998" viewBox="3 -39.65 437.55 50.5" height="28.20791517367459" data-palette-color="#000000"><path d="M3-34.55L20.15-34.55 19.5-29.8 9.35-29.8 9.35-19.9 18.2-19.9 18.2-15.2 9.35-15.2 9.35-4.8 20.15-4.8 20.15 0 3 0 3-34.55ZM37.45-37.7L43.6-37.05 43.6 0 38.15 0 37.85-3.05Q35.5 0.75 31.8 0.75L31.8 0.75Q27.7 0.75 25.52-2.93 23.35-6.6 23.35-13.2L23.35-13.2Q23.35-17.4 24.47-20.58 25.6-23.75 27.6-25.45 29.6-27.15 32.2-27.15L32.2-27.15Q35.4-27.15 37.45-24.5L37.45-24.5 37.45-37.7ZM33.55-3.9Q34.7-3.9 35.62-4.7 36.55-5.5 37.45-7L37.45-7 37.45-19.85Q35.85-22.55 33.8-22.55L33.8-22.55Q29.75-22.55 29.75-13.25L29.75-13.25Q29.75-8.2 30.75-6.05 31.75-3.9 33.55-3.9L33.55-3.9ZM67.45-26.45L67.45 0 62.1 0 61.8-3.35Q60.55-1.3 59-0.28 57.45 0.75 55.4 0.75L55.4 0.75Q52.5 0.75 50.82-1.3 49.15-3.35 49.15-6.65L49.15-6.65 49.15-26.45 55.3-26.45 55.3-7Q55.3-3.9 57.4-3.9L57.4-3.9Q58.6-3.9 59.55-4.83 60.5-5.75 61.3-7.45L61.3-7.45 61.3-26.45 67.45-26.45ZM82.64-27.15Q84.79-27.15 86.54-26.43 88.29-25.7 89.89-24.15L89.89-24.15 87.24-20.65Q86.14-21.55 85.17-21.98 84.19-22.4 83.04-22.4L83.04-22.4Q80.79-22.4 79.64-20.28 78.49-18.15 78.49-13.1L78.49-13.1Q78.49-8.2 79.67-6.2 80.84-4.2 83.04-4.2L83.04-4.2Q84.14-4.2 85.04-4.6 85.94-5 87.14-5.85L87.14-5.85 89.89-2.3Q86.69 0.75 82.74 0.75L82.74 0.75Q77.64 0.75 74.82-2.73 71.99-6.2 71.99-13L71.99-13Q71.99-17.4 73.29-20.6 74.59-23.8 77.02-25.48 79.44-27.15 82.64-27.15L82.64-27.15ZM109.84-6.4Q109.84-5.1 110.19-4.48 110.54-3.85 111.34-3.45L111.34-3.45 110.09 0.65Q108.04 0.4 106.82-0.45 105.59-1.3 104.99-3.05L104.99-3.05Q102.69 0.75 98.54 0.75L98.54 0.75Q95.24 0.75 93.29-1.48 91.34-3.7 91.34-7.4L91.34-7.4Q91.34-11.7 94.02-13.95 96.69-16.2 101.79-16.2L101.79-16.2 103.84-16.2 103.84-18.05Q103.84-20.55 102.97-21.58 102.09-22.6 100.14-22.6L100.14-22.6Q97.79-22.6 94.29-21.3L94.29-21.3 92.89-25.3Q94.89-26.2 97.04-26.68 99.19-27.15 101.14-27.15L101.14-27.15Q109.84-27.15 109.84-18.35L109.84-18.35 109.84-6.4ZM100.19-3.7Q102.59-3.7 103.84-7L103.84-7 103.84-12.55 102.39-12.55Q99.84-12.55 98.67-11.4 97.49-10.25 97.49-7.85L97.49-7.85Q97.49-5.8 98.19-4.75 98.89-3.7 100.19-3.7L100.19-3.7ZM126.79-5L128.94-1.2Q126.49 0.75 123.19 0.75L123.19 0.75Q119.74 0.75 117.94-1.23 116.14-3.2 116.14-6.6L116.14-6.6 116.14-22 113.04-22 113.04-26.45 116.14-26.45 116.14-32.3 122.29-33.05 122.29-26.45 127.29-26.45 126.69-22 122.29-22 122.29-6.6Q122.29-4.2 124.34-4.2L124.34-4.2Q124.99-4.2 125.49-4.38 125.99-4.55 126.79-5L126.79-5ZM131.49-26.45L137.64-26.45 137.64 0 131.49 0 131.49-26.45ZM134.54-39.65Q136.19-39.65 137.21-38.6 138.24-37.55 138.24-35.9L138.24-35.9Q138.24-34.3 137.21-33.25 136.19-32.2 134.54-32.2L134.54-32.2Q132.89-32.2 131.86-33.25 130.84-34.3 130.84-35.9L130.84-35.9Q130.84-37.55 131.86-38.6 132.89-39.65 134.54-39.65L134.54-39.65ZM152.73-27.15Q157.73-27.15 160.51-23.65 163.28-20.15 163.28-13.25L163.28-13.25Q163.28-6.65 160.48-2.95 157.68 0.75 152.73 0.75L152.73 0.75Q147.78 0.75 144.98-2.88 142.18-6.5 142.18-13.25L142.18-13.25Q142.18-19.95 144.98-23.55 147.78-27.15 152.73-27.15L152.73-27.15ZM152.73-22.5Q150.58-22.5 149.58-20.38 148.58-18.25 148.58-13.25L148.58-13.25Q148.58-8.2 149.58-6.08 150.58-3.95 152.73-3.95L152.73-3.95Q154.88-3.95 155.88-6.08 156.88-8.2 156.88-13.25L156.88-13.25Q156.88-18.3 155.88-20.4 154.88-22.5 152.73-22.5L152.73-22.5ZM180.18-27.15Q183.03-27.15 184.68-25.1 186.33-23.05 186.33-19.6L186.33-19.6 186.33 0 180.18 0 180.18-18.9Q180.18-20.8 179.66-21.63 179.13-22.45 178.13-22.45L178.13-22.45Q176.03-22.45 173.98-18.5L173.98-18.5 173.98 0 167.83 0 167.83-26.45 173.18-26.45 173.63-23Q174.98-25.1 176.51-26.13 178.03-27.15 180.18-27.15L180.18-27.15ZM211.43-33.05Q210.03-33.05 209.35-32.3 208.68-31.55 208.68-30L208.68-30 208.68-26.45 213.73-26.45 213.03-22 208.68-22 208.68 0 202.53 0 202.53-22 199.23-22 199.23-26.45 202.53-26.45 202.53-29.8Q202.53-33.4 204.63-35.55 206.73-37.7 210.63-37.7L210.63-37.7Q213.68-37.7 216.53-36.2L216.53-36.2 214.83-32.2Q213.08-33.05 211.43-33.05L211.43-33.05ZM225.92-27.15Q230.92-27.15 233.7-23.65 236.47-20.15 236.47-13.25L236.47-13.25Q236.47-6.65 233.67-2.95 230.87 0.75 225.92 0.75L225.92 0.75Q220.97 0.75 218.17-2.88 215.37-6.5 215.37-13.25L215.37-13.25Q215.37-19.95 218.17-23.55 220.97-27.15 225.92-27.15L225.92-27.15ZM225.92-22.5Q223.77-22.5 222.77-20.38 221.77-18.25 221.77-13.25L221.77-13.25Q221.77-8.2 222.77-6.08 223.77-3.95 225.92-3.95L225.92-3.95Q228.07-3.95 229.07-6.08 230.07-8.2 230.07-13.25L230.07-13.25Q230.07-18.3 229.07-20.4 228.07-22.5 225.92-22.5L225.92-22.5ZM252.67-27.1Q253.82-27.1 254.72-26.75L254.72-26.75 253.72-20.85Q252.72-21.1 251.87-21.1L251.87-21.1Q249.97-21.1 248.87-19.45 247.77-17.8 247.17-14.55L247.17-14.55 247.17 0 241.02 0 241.02-26.45 246.37-26.45 246.82-21.85Q248.67-27.1 252.67-27.1L252.67-27.1ZM286.27-13.85Q286.27-13.4 286.12-11.3L286.12-11.3 272.47-11.3Q272.67-7.2 273.89-5.58 275.12-3.95 277.37-3.95L277.37-3.95Q278.92-3.95 280.17-4.48 281.42-5 282.87-6.15L282.87-6.15 285.42-2.65Q281.92 0.75 277.02 0.75L277.02 0.75Q271.82 0.75 269.04-2.85 266.27-6.45 266.27-13L266.27-13Q266.27-19.55 268.92-23.35 271.57-27.15 276.42-27.15L276.42-27.15Q281.07-27.15 283.67-23.78 286.27-20.4 286.27-13.85L286.27-13.85ZM280.27-15.3L280.27-15.65Q280.27-19.4 279.37-21.13 278.47-22.85 276.47-22.85L276.47-22.85Q274.62-22.85 273.64-21.18 272.67-19.5 272.47-15.3L272.47-15.3 280.27-15.3ZM302.96-26.45L309.01-26.45 302.11 0 294.86 0 287.76-26.45 294.11-26.45 298.46-4.95 302.96-26.45ZM330.76-13.85Q330.76-13.4 330.61-11.3L330.61-11.3 316.96-11.3Q317.16-7.2 318.39-5.58 319.61-3.95 321.86-3.95L321.86-3.95Q323.41-3.95 324.66-4.48 325.91-5 327.36-6.15L327.36-6.15 329.91-2.65Q326.41 0.75 321.51 0.75L321.51 0.75Q316.31 0.75 313.54-2.85 310.76-6.45 310.76-13L310.76-13Q310.76-19.55 313.41-23.35 316.06-27.15 320.91-27.15L320.91-27.15Q325.56-27.15 328.16-23.78 330.76-20.4 330.76-13.85L330.76-13.85ZM324.76-15.3L324.76-15.65Q324.76-19.4 323.86-21.13 322.96-22.85 320.96-22.85L320.96-22.85Q319.11-22.85 318.14-21.18 317.16-19.5 316.96-15.3L316.96-15.3 324.76-15.3ZM346.71-27.1Q347.86-27.1 348.76-26.75L348.76-26.75 347.76-20.85Q346.76-21.1 345.91-21.1L345.91-21.1Q344.01-21.1 342.91-19.45 341.81-17.8 341.21-14.55L341.21-14.55 341.21 0 335.06 0 335.06-26.45 340.41-26.45 340.86-21.85Q342.71-27.1 346.71-27.1L346.71-27.1ZM370.26-26.45L363.26 0.1Q361.96 4.9 359.06 7.65 356.16 10.4 351.31 10.85L351.31 10.85 350.61 6.5Q353.76 5.85 355.33 4.42 356.91 3 357.81 0L357.81 0 355.51 0 348.81-26.45 355.06-26.45 359.46-4.1 364.16-26.45 370.26-26.45ZM382.55-27.15Q387.55-27.15 390.33-23.65 393.1-20.15 393.1-13.25L393.1-13.25Q393.1-6.65 390.3-2.95 387.5 0.75 382.55 0.75L382.55 0.75Q377.6 0.75 374.8-2.88 372-6.5 372-13.25L372-13.25Q372-19.95 374.8-23.55 377.6-27.15 382.55-27.15L382.55-27.15ZM382.55-22.5Q380.4-22.5 379.4-20.38 378.4-18.25 378.4-13.25L378.4-13.25Q378.4-8.2 379.4-6.08 380.4-3.95 382.55-3.95L382.55-3.95Q384.7-3.95 385.7-6.08 386.7-8.2 386.7-13.25L386.7-13.25Q386.7-18.3 385.7-20.4 384.7-22.5 382.55-22.5L382.55-22.5ZM410-27.15Q412.85-27.15 414.5-25.1 416.15-23.05 416.15-19.6L416.15-19.6 416.15 0 410 0 410-18.9Q410-20.8 409.48-21.63 408.95-22.45 407.95-22.45L407.95-22.45Q405.85-22.45 403.8-18.5L403.8-18.5 403.8 0 397.65 0 397.65-26.45 403-26.45 403.45-23Q404.8-25.1 406.33-26.13 407.85-27.15 410-27.15L410-27.15ZM440.55-13.85Q440.55-13.4 440.4-11.3L440.4-11.3 426.75-11.3Q426.95-7.2 428.17-5.58 429.4-3.95 431.65-3.95L431.65-3.95Q433.2-3.95 434.45-4.48 435.7-5 437.15-6.15L437.15-6.15 439.7-2.65Q436.2 0.75 431.3 0.75L431.3 0.75Q426.1 0.75 423.32-2.85 420.55-6.45 420.55-13L420.55-13Q420.55-19.55 423.2-23.35 425.85-27.15 430.7-27.15L430.7-27.15Q435.35-27.15 437.95-23.78 440.55-20.4 440.55-13.85L440.55-13.85ZM434.55-15.3L434.55-15.65Q434.55-19.4 433.65-21.13 432.75-22.85 430.75-22.85L430.75-22.85Q428.9-22.85 427.92-21.18 426.95-19.5 426.75-15.3L426.75-15.3 434.55-15.3Z" opacity="1" transform="matrix(1,0,0,1,0,0)" fill="black" class="slogan-text-1" id="SvgjsPath2864"></path></svg></g></svg></g></svg></g></svg></g><g transform="matrix(1,0,0,1,415.74884843570544,5.786679303598788)"><svg viewBox="0 0 183.32352 183.23781538539924" height="183.23781538539924" width="183.32352"><g><svg xmlns="http://www.w3.org/2000/svg" xmlns:xlink="http://www.w3.org/1999/xlink" version="1.1" x="0" y="0" viewBox="0.7607695154586737 0.7749999999999999 30.439230484541326 30.425" enable-background="new 0 0 32 32" xml:space="preserve" height="183.23781538539924" width="183.32352" class="icon-icon-0" data-fill-palette-color="accent" id="SvgjsSvg2863"><g fill="black"><g fill="black"><path fill="black" d="M1.5 31.2C1.3 31.2 1.1 31.1 1 31 0.8 30.8 0.7 30.6 0.8 30.3L4.5 11.2C4.6 10.9 4.8 10.6 5.1 10.6L14.7 9.3C14.9 9.3 15.2 9.3 15.3 9.5L22.5 16.7C22.7 16.9 22.7 17.1 22.7 17.3L21.4 26.9C21.4 27.2 21.1 27.5 20.8 27.5L1.6 31.2zM5.8 12.1L2.4 29.6 19.9 26.2 21.1 17.5 14.4 10.8z"></path></g><g fill="black"><rect x="5.2" y="19.8" transform="matrix(-0.7071 -0.7071 0.7071 -0.7071 -8.3465 48.7211)" fill="black" width="1.5" height="12.6"></rect></g><g fill="black"><path fill="black" d="M12 23.1C11.2 23.1 10.4 22.8 9.8 22.2S8.9 20.9 8.9 20C8.9 19.2 9.2 18.4 9.8 17.8 11 16.6 13 16.6 14.1 17.8 15.3 19 15.3 20.9 14.1 22.1 13.6 22.8 12.8 23.1 12 23.1M12 18.4C11.6 18.4 11.2 18.6 10.9 18.9S10.4 19.6 10.4 20 10.6 20.8 10.9 21.1C11.5 21.7 12.5 21.7 13.1 21.1S13.7 19.5 13.1 18.9C12.8 18.6 12.4 18.4 12 18.4"></path></g><g fill="black"><path fill="black" d="M23.8 18.7C22.9 18.7 22 18.3 21.4 17.7L14.3 10.6C13 9.3 13 7.1 14.3 5.8L19.1 1C19.4 0.7 19.9 0.7 20.2 1L31 11.8C31.1 11.9 31.2 12.1 31.2 12.3S31.1 12.7 31 12.8L26.1 17.7C25.5 18.4 24.7 18.7 23.8 18.7M19.7 2.6L15.4 6.9C14.7 7.6 14.7 8.9 15.4 9.6L22.5 16.7C23.2 17.4 24.5 17.4 25.2 16.7L29.5 12.4z"></path></g></g></svg></g></svg></g></svg></g><defs><mask></mask></defs></svg><rect width="395.52" height="128.6183766725027" fill="black" stroke="none" visibility="hidden"></rect></g></mask><linearGradient x1="0" x2="1" y1="0.578" y2="0.595" id="883edca6-575d-46c0-837f-651fbca12142"><stop stop-color="#6ee2f5" offset="0"></stop><stop stop-color="#6454f0" offset="1"></stop></linearGradient><rect width="395.52" height="128.61863280838188" fill="url(#883edca6-575d-46c0-837f-651fbca12142)" mask="url(#df944fbe-4f78-4b4a-96eb-79d48ae68513)" data-fill-palette-color="primary"></rect><mask id="7e636b2b-33c3-4093-a801-9eb7ed184e98"><g id="SvgjsG2891"><svg viewBox="0 0 395.52 128.6183766725027" height="128.6183766725027" width="395.52"><g><svg viewBox="0 0 599.0723684357055 194.81117399259682" height="128.6183766725027" width="395.52"><g><svg viewBox="0 0 395.52 194.81117399259682" height="194.81117399259682" width="395.52"><g id="SvgjsG2890"><svg viewBox="0 0 395.52 194.81117399259682" height="194.81117399259682" width="395.52" id="SvgjsSvg2889"><g><svg viewBox="0 0 395.52 85.68786507610037" height="85.68786507610037" width="395.52"><g transform="matrix(1,0,0,1,0,0)"><svg width="395.52" viewBox="4.96 -38.09 178.04 38.580000000000005" height="85.68786507610037" data-palette-color="url(#883edca6-575d-46c0-837f-651fbca12142)"></svg></g></svg></g><g transform="matrix(1,0,0,1,0,126.14556194751131)"><svg viewBox="0 0 395.52 68.66561204508552" height="68.66561204508552" width="395.52"><path d="M395.52 0l-11.444 34.333 11.444 34.333h-395.52l11.444-34.333-11.444-34.333z" opacity="1" fill="black"></path><g transform="matrix(1,0,0,1,75.54432,20.22884843570547)"><svg width="244.43135999999998" viewBox="3 -39.65 437.55 50.5" height="28.20791517367459" data-palette-color="#000000"><path d="M3-34.55L20.15-34.55 19.5-29.8 9.35-29.8 9.35-19.9 18.2-19.9 18.2-15.2 9.35-15.2 9.35-4.8 20.15-4.8 20.15 0 3 0 3-34.55ZM37.45-37.7L43.6-37.05 43.6 0 38.15 0 37.85-3.05Q35.5 0.75 31.8 0.75L31.8 0.75Q27.7 0.75 25.52-2.93 23.35-6.6 23.35-13.2L23.35-13.2Q23.35-17.4 24.47-20.58 25.6-23.75 27.6-25.45 29.6-27.15 32.2-27.15L32.2-27.15Q35.4-27.15 37.45-24.5L37.45-24.5 37.45-37.7ZM33.55-3.9Q34.7-3.9 35.62-4.7 36.55-5.5 37.45-7L37.45-7 37.45-19.85Q35.85-22.55 33.8-22.55L33.8-22.55Q29.75-22.55 29.75-13.25L29.75-13.25Q29.75-8.2 30.75-6.05 31.75-3.9 33.55-3.9L33.55-3.9ZM67.45-26.45L67.45 0 62.1 0 61.8-3.35Q60.55-1.3 59-0.28 57.45 0.75 55.4 0.75L55.4 0.75Q52.5 0.75 50.82-1.3 49.15-3.35 49.15-6.65L49.15-6.65 49.15-26.45 55.3-26.45 55.3-7Q55.3-3.9 57.4-3.9L57.4-3.9Q58.6-3.9 59.55-4.83 60.5-5.75 61.3-7.45L61.3-7.45 61.3-26.45 67.45-26.45ZM82.64-27.15Q84.79-27.15 86.54-26.43 88.29-25.7 89.89-24.15L89.89-24.15 87.24-20.65Q86.14-21.55 85.17-21.98 84.19-22.4 83.04-22.4L83.04-22.4Q80.79-22.4 79.64-20.28 78.49-18.15 78.49-13.1L78.49-13.1Q78.49-8.2 79.67-6.2 80.84-4.2 83.04-4.2L83.04-4.2Q84.14-4.2 85.04-4.6 85.94-5 87.14-5.85L87.14-5.85 89.89-2.3Q86.69 0.75 82.74 0.75L82.74 0.75Q77.64 0.75 74.82-2.73 71.99-6.2 71.99-13L71.99-13Q71.99-17.4 73.29-20.6 74.59-23.8 77.02-25.48 79.44-27.15 82.64-27.15L82.64-27.15ZM109.84-6.4Q109.84-5.1 110.19-4.48 110.54-3.85 111.34-3.45L111.34-3.45 110.09 0.65Q108.04 0.4 106.82-0.45 105.59-1.3 104.99-3.05L104.99-3.05Q102.69 0.75 98.54 0.75L98.54 0.75Q95.24 0.75 93.29-1.48 91.34-3.7 91.34-7.4L91.34-7.4Q91.34-11.7 94.02-13.95 96.69-16.2 101.79-16.2L101.79-16.2 103.84-16.2 103.84-18.05Q103.84-20.55 102.97-21.58 102.09-22.6 100.14-22.6L100.14-22.6Q97.79-22.6 94.29-21.3L94.29-21.3 92.89-25.3Q94.89-26.2 97.04-26.68 99.19-27.15 101.14-27.15L101.14-27.15Q109.84-27.15 109.84-18.35L109.84-18.35 109.84-6.4ZM100.19-3.7Q102.59-3.7 103.84-7L103.84-7 103.84-12.55 102.39-12.55Q99.84-12.55 98.67-11.4 97.49-10.25 97.49-7.85L97.49-7.85Q97.49-5.8 98.19-4.75 98.89-3.7 100.19-3.7L100.19-3.7ZM126.79-5L128.94-1.2Q126.49 0.75 123.19 0.75L123.19 0.75Q119.74 0.75 117.94-1.23 116.14-3.2 116.14-6.6L116.14-6.6 116.14-22 113.04-22 113.04-26.45 116.14-26.45 116.14-32.3 122.29-33.05 122.29-26.45 127.29-26.45 126.69-22 122.29-22 122.29-6.6Q122.29-4.2 124.34-4.2L124.34-4.2Q124.99-4.2 125.49-4.38 125.99-4.55 126.79-5L126.79-5ZM131.49-26.45L137.64-26.45 137.64 0 131.49 0 131.49-26.45ZM134.54-39.65Q136.19-39.65 137.21-38.6 138.24-37.55 138.24-35.9L138.24-35.9Q138.24-34.3 137.21-33.25 136.19-32.2 134.54-32.2L134.54-32.2Q132.89-32.2 131.86-33.25 130.84-34.3 130.84-35.9L130.84-35.9Q130.84-37.55 131.86-38.6 132.89-39.65 134.54-39.65L134.54-39.65ZM152.73-27.15Q157.73-27.15 160.51-23.65 163.28-20.15 163.28-13.25L163.28-13.25Q163.28-6.65 160.48-2.95 157.68 0.75 152.73 0.75L152.73 0.75Q147.78 0.75 144.98-2.88 142.18-6.5 142.18-13.25L142.18-13.25Q142.18-19.95 144.98-23.55 147.78-27.15 152.73-27.15L152.73-27.15ZM152.73-22.5Q150.58-22.5 149.58-20.38 148.58-18.25 148.58-13.25L148.58-13.25Q148.58-8.2 149.58-6.08 150.58-3.95 152.73-3.95L152.73-3.95Q154.88-3.95 155.88-6.08 156.88-8.2 156.88-13.25L156.88-13.25Q156.88-18.3 155.88-20.4 154.88-22.5 152.73-22.5L152.73-22.5ZM180.18-27.15Q183.03-27.15 184.68-25.1 186.33-23.05 186.33-19.6L186.33-19.6 186.33 0 180.18 0 180.18-18.9Q180.18-20.8 179.66-21.63 179.13-22.45 178.13-22.45L178.13-22.45Q176.03-22.45 173.98-18.5L173.98-18.5 173.98 0 167.83 0 167.83-26.45 173.18-26.45 173.63-23Q174.98-25.1 176.51-26.13 178.03-27.15 180.18-27.15L180.18-27.15ZM211.43-33.05Q210.03-33.05 209.35-32.3 208.68-31.55 208.68-30L208.68-30 208.68-26.45 213.73-26.45 213.03-22 208.68-22 208.68 0 202.53 0 202.53-22 199.23-22 199.23-26.45 202.53-26.45 202.53-29.8Q202.53-33.4 204.63-35.55 206.73-37.7 210.63-37.7L210.63-37.7Q213.68-37.7 216.53-36.2L216.53-36.2 214.83-32.2Q213.08-33.05 211.43-33.05L211.43-33.05ZM225.92-27.15Q230.92-27.15 233.7-23.65 236.47-20.15 236.47-13.25L236.47-13.25Q236.47-6.65 233.67-2.95 230.87 0.75 225.92 0.75L225.92 0.75Q220.97 0.75 218.17-2.88 215.37-6.5 215.37-13.25L215.37-13.25Q215.37-19.95 218.17-23.55 220.97-27.15 225.92-27.15L225.92-27.15ZM225.92-22.5Q223.77-22.5 222.77-20.38 221.77-18.25 221.77-13.25L221.77-13.25Q221.77-8.2 222.77-6.08 223.77-3.95 225.92-3.95L225.92-3.95Q228.07-3.95 229.07-6.08 230.07-8.2 230.07-13.25L230.07-13.25Q230.07-18.3 229.07-20.4 228.07-22.5 225.92-22.5L225.92-22.5ZM252.67-27.1Q253.82-27.1 254.72-26.75L254.72-26.75 253.72-20.85Q252.72-21.1 251.87-21.1L251.87-21.1Q249.97-21.1 248.87-19.45 247.77-17.8 247.17-14.55L247.17-14.55 247.17 0 241.02 0 241.02-26.45 246.37-26.45 246.82-21.85Q248.67-27.1 252.67-27.1L252.67-27.1ZM286.27-13.85Q286.27-13.4 286.12-11.3L286.12-11.3 272.47-11.3Q272.67-7.2 273.89-5.58 275.12-3.95 277.37-3.95L277.37-3.95Q278.92-3.95 280.17-4.48 281.42-5 282.87-6.15L282.87-6.15 285.42-2.65Q281.92 0.75 277.02 0.75L277.02 0.75Q271.82 0.75 269.04-2.85 266.27-6.45 266.27-13L266.27-13Q266.27-19.55 268.92-23.35 271.57-27.15 276.42-27.15L276.42-27.15Q281.07-27.15 283.67-23.78 286.27-20.4 286.27-13.85L286.27-13.85ZM280.27-15.3L280.27-15.65Q280.27-19.4 279.37-21.13 278.47-22.85 276.47-22.85L276.47-22.85Q274.62-22.85 273.64-21.18 272.67-19.5 272.47-15.3L272.47-15.3 280.27-15.3ZM302.96-26.45L309.01-26.45 302.11 0 294.86 0 287.76-26.45 294.11-26.45 298.46-4.95 302.96-26.45ZM330.76-13.85Q330.76-13.4 330.61-11.3L330.61-11.3 316.96-11.3Q317.16-7.2 318.39-5.58 319.61-3.95 321.86-3.95L321.86-3.95Q323.41-3.95 324.66-4.48 325.91-5 327.36-6.15L327.36-6.15 329.91-2.65Q326.41 0.75 321.51 0.75L321.51 0.75Q316.31 0.75 313.54-2.85 310.76-6.45 310.76-13L310.76-13Q310.76-19.55 313.41-23.35 316.06-27.15 320.91-27.15L320.91-27.15Q325.56-27.15 328.16-23.78 330.76-20.4 330.76-13.85L330.76-13.85ZM324.76-15.3L324.76-15.65Q324.76-19.4 323.86-21.13 322.96-22.85 320.96-22.85L320.96-22.85Q319.11-22.85 318.14-21.18 317.16-19.5 316.96-15.3L316.96-15.3 324.76-15.3ZM346.71-27.1Q347.86-27.1 348.76-26.75L348.76-26.75 347.76-20.85Q346.76-21.1 345.91-21.1L345.91-21.1Q344.01-21.1 342.91-19.45 341.81-17.8 341.21-14.55L341.21-14.55 341.21 0 335.06 0 335.06-26.45 340.41-26.45 340.86-21.85Q342.71-27.1 346.71-27.1L346.71-27.1ZM370.26-26.45L363.26 0.1Q361.96 4.9 359.06 7.65 356.16 10.4 351.31 10.85L351.31 10.85 350.61 6.5Q353.76 5.85 355.33 4.42 356.91 3 357.81 0L357.81 0 355.51 0 348.81-26.45 355.06-26.45 359.46-4.1 364.16-26.45 370.26-26.45ZM382.55-27.15Q387.55-27.15 390.33-23.65 393.1-20.15 393.1-13.25L393.1-13.25Q393.1-6.65 390.3-2.95 387.5 0.75 382.55 0.75L382.55 0.75Q377.6 0.75 374.8-2.88 372-6.5 372-13.25L372-13.25Q372-19.95 374.8-23.55 377.6-27.15 382.55-27.15L382.55-27.15ZM382.55-22.5Q380.4-22.5 379.4-20.38 378.4-18.25 378.4-13.25L378.4-13.25Q378.4-8.2 379.4-6.08 380.4-3.95 382.55-3.95L382.55-3.95Q384.7-3.95 385.7-6.08 386.7-8.2 386.7-13.25L386.7-13.25Q386.7-18.3 385.7-20.4 384.7-22.5 382.55-22.5L382.55-22.5ZM410-27.15Q412.85-27.15 414.5-25.1 416.15-23.05 416.15-19.6L416.15-19.6 416.15 0 410 0 410-18.9Q410-20.8 409.48-21.63 408.95-22.45 407.95-22.45L407.95-22.45Q405.85-22.45 403.8-18.5L403.8-18.5 403.8 0 397.65 0 397.65-26.45 403-26.45 403.45-23Q404.8-25.1 406.33-26.13 407.85-27.15 410-27.15L410-27.15ZM440.55-13.85Q440.55-13.4 440.4-11.3L440.4-11.3 426.75-11.3Q426.95-7.2 428.17-5.58 429.4-3.95 431.65-3.95L431.65-3.95Q433.2-3.95 434.45-4.48 435.7-5 437.15-6.15L437.15-6.15 439.7-2.65Q436.2 0.75 431.3 0.75L431.3 0.75Q426.1 0.75 423.32-2.85 420.55-6.45 420.55-13L420.55-13Q420.55-19.55 423.2-23.35 425.85-27.15 430.7-27.15L430.7-27.15Q435.35-27.15 437.95-23.78 440.55-20.4 440.55-13.85L440.55-13.85ZM434.55-15.3L434.55-15.65Q434.55-19.4 433.65-21.13 432.75-22.85 430.75-22.85L430.75-22.85Q428.9-22.85 427.92-21.18 426.95-19.5 426.75-15.3L426.75-15.3 434.55-15.3Z" opacity="1" transform="matrix(1,0,0,1,0,0)" fill="black" class="slogan-text-1" id="SvgjsPath2888"></path></svg></g></svg></g></svg></g></svg></g><g transform="matrix(1,0,0,1,415.74884843570544,5.786679303598788)"><svg viewBox="0 0 183.32352 183.23781538539924" height="183.23781538539924" width="183.32352"><g><svg xmlns="http://www.w3.org/2000/svg" xmlns:xlink="http://www.w3.org/1999/xlink" version="1.1" x="0" y="0" viewBox="0.7607695154586737 0.7749999999999999 30.439230484541326 30.425" enable-background="new 0 0 32 32" xml:space="preserve" height="183.23781538539924" width="183.32352" class="icon-icon-0" data-fill-palette-color="accent" id="SvgjsSvg2887"><g fill="white"><g fill="white"><path fill="white" d="M1.5 31.2C1.3 31.2 1.1 31.1 1 31 0.8 30.8 0.7 30.6 0.8 30.3L4.5 11.2C4.6 10.9 4.8 10.6 5.1 10.6L14.7 9.3C14.9 9.3 15.2 9.3 15.3 9.5L22.5 16.7C22.7 16.9 22.7 17.1 22.7 17.3L21.4 26.9C21.4 27.2 21.1 27.5 20.8 27.5L1.6 31.2zM5.8 12.1L2.4 29.6 19.9 26.2 21.1 17.5 14.4 10.8z"></path></g><g fill="white"><rect x="5.2" y="19.8" transform="matrix(-0.7071 -0.7071 0.7071 -0.7071 -8.3465 48.7211)" fill="white" width="1.5" height="12.6"></rect></g><g fill="white"><path fill="white" d="M12 23.1C11.2 23.1 10.4 22.8 9.8 22.2S8.9 20.9 8.9 20C8.9 19.2 9.2 18.4 9.8 17.8 11 16.6 13 16.6 14.1 17.8 15.3 19 15.3 20.9 14.1 22.1 13.6 22.8 12.8 23.1 12 23.1M12 18.4C11.6 18.4 11.2 18.6 10.9 18.9S10.4 19.6 10.4 20 10.6 20.8 10.9 21.1C11.5 21.7 12.5 21.7 13.1 21.1S13.7 19.5 13.1 18.9C12.8 18.6 12.4 18.4 12 18.4"></path></g><g fill="white"><path fill="white" d="M23.8 18.7C22.9 18.7 22 18.3 21.4 17.7L14.3 10.6C13 9.3 13 7.1 14.3 5.8L19.1 1C19.4 0.7 19.9 0.7 20.2 1L31 11.8C31.1 11.9 31.2 12.1 31.2 12.3S31.1 12.7 31 12.8L26.1 17.7C25.5 18.4 24.7 18.7 23.8 18.7M19.7 2.6L15.4 6.9C14.7 7.6 14.7 8.9 15.4 9.6L22.5 16.7C23.2 17.4 24.5 17.4 25.2 16.7L29.5 12.4z"></path></g></g></svg></g></svg></g></svg></g><defs><mask></mask></defs><mask><g id="SvgjsG2886"><svg viewBox="0 0 395.52 128.6183766725027" height="128.6183766725027" width="395.52"><g><svg viewBox="0 0 599.0723684357055 194.81117399259682" height="128.6183766725027" width="395.52"><g><svg viewBox="0 0 395.52 194.81117399259682" height="194.81117399259682" width="395.52"><g id="SvgjsG2885"><svg viewBox="0 0 395.52 194.81117399259682" height="194.81117399259682" width="395.52" id="SvgjsSvg2884"><g><svg viewBox="0 0 395.52 85.68786507610037" height="85.68786507610037" width="395.52"><g transform="matrix(1,0,0,1,0,0)"><svg width="395.52" viewBox="4.96 -38.09 178.04 38.580000000000005" height="85.68786507610037" data-palette-color="url(#883edca6-575d-46c0-837f-651fbca12142)"><path d="M28.47 0L4.96 0 4.96-35.55 28.37-35.55 28.2-31.98 9.69-31.98 9.69-20.19 26.78-20.19 26.78-16.6 9.69-16.6 9.69-3.61 28.76-3.61 28.47 0ZM46.21 0.49L46.21 0.49Q42.5 0.49 39.96-1.26 37.42-3 36.13-6.1 34.84-9.2 34.84-13.28L34.84-13.28Q34.84-17.41 36.19-20.47 37.55-23.54 40.1-25.23 42.65-26.93 46.19-26.93L46.19-26.93Q48.73-26.93 50.47-26.17 52.22-25.42 53.34-24.22L53.34-24.22 53.22-28.15 53.22-37.6 57.81-38.09 57.81 0 53.98 0 53.73-2.88Q52.29-1.17 50.25-0.34 48.22 0.49 46.21 0.49ZM46.68-2.81L46.68-2.81Q48.75-2.81 50.47-3.5 52.19-4.2 53.37-5.62L53.37-5.62 53.37-20.63Q52.34-22.12 50.57-22.9 48.8-23.68 46.65-23.68L46.65-23.68Q44.82-23.68 43.47-22.99 42.11-22.29 41.21-20.96 40.31-19.63 39.85-17.71 39.4-15.8 39.4-13.35L39.4-13.35Q39.4-10.03 40.18-7.68 40.96-5.32 42.59-4.06 44.21-2.81 46.68-2.81ZM75.26 0.49L75.26 0.49Q70.58 0.49 68.17-2.1 65.77-4.69 65.77-9.86L65.77-9.86 65.77-26.42 70.21-26.42 70.21-9.96Q70.21-7.69 70.76-6.08 71.31-4.47 72.55-3.61 73.8-2.76 75.87-2.76L75.87-2.76Q77.97-2.76 79.4-3.38 80.83-4 81.75-4.83 82.66-5.66 83.15-6.32L83.15-6.32 83.15-26.42 87.57-26.42 87.57 0 83.74 0 83.49-3.3Q82.17-1.64 80.17-0.57 78.17 0.49 75.26 0.49ZM103.41 0.02L99.43 0.02 92.2-26.42 96.38-26.42 101.65-5.81 107.76-26.42 112.39-26.42 118.89-5.74 123.8-26.42 127.85-26.42 120.96 0.02 116.96 0.02 110.17-22.14 103.41 0.02ZM143.76 0.49L143.76 0.49Q140.2 0.49 137.33-1.15 134.46-2.78 132.79-5.85 131.12-8.91 131.12-13.13L131.12-13.13Q131.12-17.53 132.75-20.63 134.39-23.73 137.15-25.37 139.91-27 143.23-27L143.23-27Q146.47-27 148.77-25.56 151.06-24.12 152.3-21.46 153.53-18.8 153.53-15.14L153.53-15.14Q153.53-14.77 153.47-14.14 153.41-13.5 153.36-12.99 153.31-12.48 153.31-12.43L153.31-12.43 135.66-12.43Q135.85-9.06 137.01-6.93 138.17-4.81 140.07-3.81 141.96-2.81 144.33-2.81L144.33-2.81Q146.6-2.81 148.21-3.45 149.82-4.1 151.45-5.03L151.45-5.03 151.77-5.03 152.8-2.12Q151.16-1 148.85-0.26 146.55 0.49 143.76 0.49ZM135.73-15.31L135.73-15.31 149.72-15.31Q149.67-19.29 148.15-21.5 146.62-23.71 143.45-23.71L143.45-23.71Q140.25-23.71 138.16-21.45 136.07-19.19 135.73-15.31ZM171.74 0.49L171.74 0.49Q169.15 0.49 167.21-0.45 165.27-1.39 164.07-2.81L164.07-2.81 163.81 0 160.19 0 160.19-37.6 164.64-38.09 164.64-27.08 164.47-21.53Q165.37-23.73 166.67-24.91 167.98-26.1 169.52-26.55 171.06-27 172.57-27L172.57-27Q176.16-27 178.47-25.23 180.77-23.46 181.88-20.36 183-17.26 183-13.26L183-13.26Q183-9.13 181.68-6.04 180.36-2.95 177.86-1.23 175.35 0.49 171.74 0.49ZM171.47-2.81L171.47-2.81Q173.91-2.81 175.45-4.08 176.99-5.35 177.72-7.69 178.45-10.03 178.45-13.23L178.45-13.23Q178.45-16.28 177.86-18.64 177.26-21 175.84-22.34 174.43-23.68 171.94-23.68L171.94-23.68Q169.32-23.68 167.66-22.44 166-21.19 165.23-18.95 164.47-16.7 164.47-13.65L164.47-13.65 164.47-6.1Q165.27-5 166.34-4.27 167.42-3.54 168.73-3.17 170.03-2.81 171.47-2.81Z" opacity="1" transform="matrix(1,0,0,1,0,0)" fill="black" class="wordmark-text-0" id="SvgjsPath2883"></path></svg></g></svg></g><g transform="matrix(1,0,0,1,0,126.14556194751131)"><svg viewBox="0 0 395.52 68.66561204508552" height="68.66561204508552" width="395.52"><path d="M395.52 0l-11.444 34.333 11.444 34.333h-395.52l11.444-34.333-11.444-34.333z" opacity="1" fill="black"></path><g transform="matrix(1,0,0,1,75.54432,20.22884843570547)"><svg width="244.43135999999998" viewBox="3 -39.65 437.55 50.5" height="28.20791517367459" data-palette-color="#000000"><path d="M3-34.55L20.15-34.55 19.5-29.8 9.35-29.8 9.35-19.9 18.2-19.9 18.2-15.2 9.35-15.2 9.35-4.8 20.15-4.8 20.15 0 3 0 3-34.55ZM37.45-37.7L43.6-37.05 43.6 0 38.15 0 37.85-3.05Q35.5 0.75 31.8 0.75L31.8 0.75Q27.7 0.75 25.52-2.93 23.35-6.6 23.35-13.2L23.35-13.2Q23.35-17.4 24.47-20.58 25.6-23.75 27.6-25.45 29.6-27.15 32.2-27.15L32.2-27.15Q35.4-27.15 37.45-24.5L37.45-24.5 37.45-37.7ZM33.55-3.9Q34.7-3.9 35.62-4.7 36.55-5.5 37.45-7L37.45-7 37.45-19.85Q35.85-22.55 33.8-22.55L33.8-22.55Q29.75-22.55 29.75-13.25L29.75-13.25Q29.75-8.2 30.75-6.05 31.75-3.9 33.55-3.9L33.55-3.9ZM67.45-26.45L67.45 0 62.1 0 61.8-3.35Q60.55-1.3 59-0.28 57.45 0.75 55.4 0.75L55.4 0.75Q52.5 0.75 50.82-1.3 49.15-3.35 49.15-6.65L49.15-6.65 49.15-26.45 55.3-26.45 55.3-7Q55.3-3.9 57.4-3.9L57.4-3.9Q58.6-3.9 59.55-4.83 60.5-5.75 61.3-7.45L61.3-7.45 61.3-26.45 67.45-26.45ZM82.64-27.15Q84.79-27.15 86.54-26.43 88.29-25.7 89.89-24.15L89.89-24.15 87.24-20.65Q86.14-21.55 85.17-21.98 84.19-22.4 83.04-22.4L83.04-22.4Q80.79-22.4 79.64-20.28 78.49-18.15 78.49-13.1L78.49-13.1Q78.49-8.2 79.67-6.2 80.84-4.2 83.04-4.2L83.04-4.2Q84.14-4.2 85.04-4.6 85.94-5 87.14-5.85L87.14-5.85 89.89-2.3Q86.69 0.75 82.74 0.75L82.74 0.75Q77.64 0.75 74.82-2.73 71.99-6.2 71.99-13L71.99-13Q71.99-17.4 73.29-20.6 74.59-23.8 77.02-25.48 79.44-27.15 82.64-27.15L82.64-27.15ZM109.84-6.4Q109.84-5.1 110.19-4.48 110.54-3.85 111.34-3.45L111.34-3.45 110.09 0.65Q108.04 0.4 106.82-0.45 105.59-1.3 104.99-3.05L104.99-3.05Q102.69 0.75 98.54 0.75L98.54 0.75Q95.24 0.75 93.29-1.48 91.34-3.7 91.34-7.4L91.34-7.4Q91.34-11.7 94.02-13.95 96.69-16.2 101.79-16.2L101.79-16.2 103.84-16.2 103.84-18.05Q103.84-20.55 102.97-21.58 102.09-22.6 100.14-22.6L100.14-22.6Q97.79-22.6 94.29-21.3L94.29-21.3 92.89-25.3Q94.89-26.2 97.04-26.68 99.19-27.15 101.14-27.15L101.14-27.15Q109.84-27.15 109.84-18.35L109.84-18.35 109.84-6.4ZM100.19-3.7Q102.59-3.7 103.84-7L103.84-7 103.84-12.55 102.39-12.55Q99.84-12.55 98.67-11.4 97.49-10.25 97.49-7.85L97.49-7.85Q97.49-5.8 98.19-4.75 98.89-3.7 100.19-3.7L100.19-3.7ZM126.79-5L128.94-1.2Q126.49 0.75 123.19 0.75L123.19 0.75Q119.74 0.75 117.94-1.23 116.14-3.2 116.14-6.6L116.14-6.6 116.14-22 113.04-22 113.04-26.45 116.14-26.45 116.14-32.3 122.29-33.05 122.29-26.45 127.29-26.45 126.69-22 122.29-22 122.29-6.6Q122.29-4.2 124.34-4.2L124.34-4.2Q124.99-4.2 125.49-4.38 125.99-4.55 126.79-5L126.79-5ZM131.49-26.45L137.64-26.45 137.64 0 131.49 0 131.49-26.45ZM134.54-39.65Q136.19-39.65 137.21-38.6 138.24-37.55 138.24-35.9L138.24-35.9Q138.24-34.3 137.21-33.25 136.19-32.2 134.54-32.2L134.54-32.2Q132.89-32.2 131.86-33.25 130.84-34.3 130.84-35.9L130.84-35.9Q130.84-37.55 131.86-38.6 132.89-39.65 134.54-39.65L134.54-39.65ZM152.73-27.15Q157.73-27.15 160.51-23.65 163.28-20.15 163.28-13.25L163.28-13.25Q163.28-6.65 160.48-2.95 157.68 0.75 152.73 0.75L152.73 0.75Q147.78 0.75 144.98-2.88 142.18-6.5 142.18-13.25L142.18-13.25Q142.18-19.95 144.98-23.55 147.78-27.15 152.73-27.15L152.73-27.15ZM152.73-22.5Q150.58-22.5 149.58-20.38 148.58-18.25 148.58-13.25L148.58-13.25Q148.58-8.2 149.58-6.08 150.58-3.95 152.73-3.95L152.73-3.95Q154.88-3.95 155.88-6.08 156.88-8.2 156.88-13.25L156.88-13.25Q156.88-18.3 155.88-20.4 154.88-22.5 152.73-22.5L152.73-22.5ZM180.18-27.15Q183.03-27.15 184.68-25.1 186.33-23.05 186.33-19.6L186.33-19.6 186.33 0 180.18 0 180.18-18.9Q180.18-20.8 179.66-21.63 179.13-22.45 178.13-22.45L178.13-22.45Q176.03-22.45 173.98-18.5L173.98-18.5 173.98 0 167.83 0 167.83-26.45 173.18-26.45 173.63-23Q174.98-25.1 176.51-26.13 178.03-27.15 180.18-27.15L180.18-27.15ZM211.43-33.05Q210.03-33.05 209.35-32.3 208.68-31.55 208.68-30L208.68-30 208.68-26.45 213.73-26.45 213.03-22 208.68-22 208.68 0 202.53 0 202.53-22 199.23-22 199.23-26.45 202.53-26.45 202.53-29.8Q202.53-33.4 204.63-35.55 206.73-37.7 210.63-37.7L210.63-37.7Q213.68-37.7 216.53-36.2L216.53-36.2 214.83-32.2Q213.08-33.05 211.43-33.05L211.43-33.05ZM225.92-27.15Q230.92-27.15 233.7-23.65 236.47-20.15 236.47-13.25L236.47-13.25Q236.47-6.65 233.67-2.95 230.87 0.75 225.92 0.75L225.92 0.75Q220.97 0.75 218.17-2.88 215.37-6.5 215.37-13.25L215.37-13.25Q215.37-19.95 218.17-23.55 220.97-27.15 225.92-27.15L225.92-27.15ZM225.92-22.5Q223.77-22.5 222.77-20.38 221.77-18.25 221.77-13.25L221.77-13.25Q221.77-8.2 222.77-6.08 223.77-3.95 225.92-3.95L225.92-3.95Q228.07-3.95 229.07-6.08 230.07-8.2 230.07-13.25L230.07-13.25Q230.07-18.3 229.07-20.4 228.07-22.5 225.92-22.5L225.92-22.5ZM252.67-27.1Q253.82-27.1 254.72-26.75L254.72-26.75 253.72-20.85Q252.72-21.1 251.87-21.1L251.87-21.1Q249.97-21.1 248.87-19.45 247.77-17.8 247.17-14.55L247.17-14.55 247.17 0 241.02 0 241.02-26.45 246.37-26.45 246.82-21.85Q248.67-27.1 252.67-27.1L252.67-27.1ZM286.27-13.85Q286.27-13.4 286.12-11.3L286.12-11.3 272.47-11.3Q272.67-7.2 273.89-5.58 275.12-3.95 277.37-3.95L277.37-3.95Q278.92-3.95 280.17-4.48 281.42-5 282.87-6.15L282.87-6.15 285.42-2.65Q281.92 0.75 277.02 0.75L277.02 0.75Q271.82 0.75 269.04-2.85 266.27-6.45 266.27-13L266.27-13Q266.27-19.55 268.92-23.35 271.57-27.15 276.42-27.15L276.42-27.15Q281.07-27.15 283.67-23.78 286.27-20.4 286.27-13.85L286.27-13.85ZM280.27-15.3L280.27-15.65Q280.27-19.4 279.37-21.13 278.47-22.85 276.47-22.85L276.47-22.85Q274.62-22.85 273.64-21.18 272.67-19.5 272.47-15.3L272.47-15.3 280.27-15.3ZM302.96-26.45L309.01-26.45 302.11 0 294.86 0 287.76-26.45 294.11-26.45 298.46-4.95 302.96-26.45ZM330.76-13.85Q330.76-13.4 330.61-11.3L330.61-11.3 316.96-11.3Q317.16-7.2 318.39-5.58 319.61-3.95 321.86-3.95L321.86-3.95Q323.41-3.95 324.66-4.48 325.91-5 327.36-6.15L327.36-6.15 329.91-2.65Q326.41 0.75 321.51 0.75L321.51 0.75Q316.31 0.75 313.54-2.85 310.76-6.45 310.76-13L310.76-13Q310.76-19.55 313.41-23.35 316.06-27.15 320.91-27.15L320.91-27.15Q325.56-27.15 328.16-23.78 330.76-20.4 330.76-13.85L330.76-13.85ZM324.76-15.3L324.76-15.65Q324.76-19.4 323.86-21.13 322.96-22.85 320.96-22.85L320.96-22.85Q319.11-22.85 318.14-21.18 317.16-19.5 316.96-15.3L316.96-15.3 324.76-15.3ZM346.71-27.1Q347.86-27.1 348.76-26.75L348.76-26.75 347.76-20.85Q346.76-21.1 345.91-21.1L345.91-21.1Q344.01-21.1 342.91-19.45 341.81-17.8 341.21-14.55L341.21-14.55 341.21 0 335.06 0 335.06-26.45 340.41-26.45 340.86-21.85Q342.71-27.1 346.71-27.1L346.71-27.1ZM370.26-26.45L363.26 0.1Q361.96 4.9 359.06 7.65 356.16 10.4 351.31 10.85L351.31 10.85 350.61 6.5Q353.76 5.85 355.33 4.42 356.91 3 357.81 0L357.81 0 355.51 0 348.81-26.45 355.06-26.45 359.46-4.1 364.16-26.45 370.26-26.45ZM382.55-27.15Q387.55-27.15 390.33-23.65 393.1-20.15 393.1-13.25L393.1-13.25Q393.1-6.65 390.3-2.95 387.5 0.75 382.55 0.75L382.55 0.75Q377.6 0.75 374.8-2.88 372-6.5 372-13.25L372-13.25Q372-19.95 374.8-23.55 377.6-27.15 382.55-27.15L382.55-27.15ZM382.55-22.5Q380.4-22.5 379.4-20.38 378.4-18.25 378.4-13.25L378.4-13.25Q378.4-8.2 379.4-6.08 380.4-3.95 382.55-3.95L382.55-3.95Q384.7-3.95 385.7-6.08 386.7-8.2 386.7-13.25L386.7-13.25Q386.7-18.3 385.7-20.4 384.7-22.5 382.55-22.5L382.55-22.5ZM410-27.15Q412.85-27.15 414.5-25.1 416.15-23.05 416.15-19.6L416.15-19.6 416.15 0 410 0 410-18.9Q410-20.8 409.48-21.63 408.95-22.45 407.95-22.45L407.95-22.45Q405.85-22.45 403.8-18.5L403.8-18.5 403.8 0 397.65 0 397.65-26.45 403-26.45 403.45-23Q404.8-25.1 406.33-26.13 407.85-27.15 410-27.15L410-27.15ZM440.55-13.85Q440.55-13.4 440.4-11.3L440.4-11.3 426.75-11.3Q426.95-7.2 428.17-5.58 429.4-3.95 431.65-3.95L431.65-3.95Q433.2-3.95 434.45-4.48 435.7-5 437.15-6.15L437.15-6.15 439.7-2.65Q436.2 0.75 431.3 0.75L431.3 0.75Q426.1 0.75 423.32-2.85 420.55-6.45 420.55-13L420.55-13Q420.55-19.55 423.2-23.35 425.85-27.15 430.7-27.15L430.7-27.15Q435.35-27.15 437.95-23.78 440.55-20.4 440.55-13.85L440.55-13.85ZM434.55-15.3L434.55-15.65Q434.55-19.4 433.65-21.13 432.75-22.85 430.75-22.85L430.75-22.85Q428.9-22.85 427.92-21.18 426.95-19.5 426.75-15.3L426.75-15.3 434.55-15.3Z" opacity="1" transform="matrix(1,0,0,1,0,0)" fill="black" class="slogan-text-1" id="SvgjsPath2882"></path></svg></g></svg></g></svg></g></svg></g><g transform="matrix(1,0,0,1,415.74884843570544,5.786679303598788)"><svg viewBox="0 0 183.32352 183.23781538539924" height="183.23781538539924" width="183.32352"><g><svg xmlns="http://www.w3.org/2000/svg" xmlns:xlink="http://www.w3.org/1999/xlink" version="1.1" x="0" y="0" viewBox="0.7607695154586737 0.7749999999999999 30.439230484541326 30.425" enable-background="new 0 0 32 32" xml:space="preserve" height="183.23781538539924" width="183.32352" class="icon-icon-0" data-fill-palette-color="accent" id="SvgjsSvg2881"><g fill="black"><g fill="black"><path fill="black" d="M1.5 31.2C1.3 31.2 1.1 31.1 1 31 0.8 30.8 0.7 30.6 0.8 30.3L4.5 11.2C4.6 10.9 4.8 10.6 5.1 10.6L14.7 9.3C14.9 9.3 15.2 9.3 15.3 9.5L22.5 16.7C22.7 16.9 22.7 17.1 22.7 17.3L21.4 26.9C21.4 27.2 21.1 27.5 20.8 27.5L1.6 31.2zM5.8 12.1L2.4 29.6 19.9 26.2 21.1 17.5 14.4 10.8z"></path></g><g fill="black"><rect x="5.2" y="19.8" transform="matrix(-0.7071 -0.7071 0.7071 -0.7071 -8.3465 48.7211)" fill="black" width="1.5" height="12.6"></rect></g><g fill="black"><path fill="black" d="M12 23.1C11.2 23.1 10.4 22.8 9.8 22.2S8.9 20.9 8.9 20C8.9 19.2 9.2 18.4 9.8 17.8 11 16.6 13 16.6 14.1 17.8 15.3 19 15.3 20.9 14.1 22.1 13.6 22.8 12.8 23.1 12 23.1M12 18.4C11.6 18.4 11.2 18.6 10.9 18.9S10.4 19.6 10.4 20 10.6 20.8 10.9 21.1C11.5 21.7 12.5 21.7 13.1 21.1S13.7 19.5 13.1 18.9C12.8 18.6 12.4 18.4 12 18.4"></path></g><g fill="black"><path fill="black" d="M23.8 18.7C22.9 18.7 22 18.3 21.4 17.7L14.3 10.6C13 9.3 13 7.1 14.3 5.8L19.1 1C19.4 0.7 19.9 0.7 20.2 1L31 11.8C31.1 11.9 31.2 12.1 31.2 12.3S31.1 12.7 31 12.8L26.1 17.7C25.5 18.4 24.7 18.7 23.8 18.7M19.7 2.6L15.4 6.9C14.7 7.6 14.7 8.9 15.4 9.6L22.5 16.7C23.2 17.4 24.5 17.4 25.2 16.7L29.5 12.4z"></path></g></g></svg></g></svg></g></svg></g><defs><mask></mask></defs></svg><rect width="395.52" height="128.6183766725027" fill="black" stroke="none" visibility="hidden"></rect></g></mask></svg><rect width="395.52" height="128.6183766725027" fill="black" stroke="none" visibility="hidden"></rect></g></mask><linearGradient x1="0" x2="1" y1="0.578" y2="0.595" id="140c8607-0251-4406-b03a-affec738d99e"><stop stop-color="#6ee2f5" offset="0"></stop><stop stop-color="#6454f0" offset="1"></stop></linearGradient><rect width="395.52" height="128.61863280838188" fill="url(#140c8607-0251-4406-b03a-affec738d99e)" mask="url(#7e636b2b-33c3-4093-a801-9eb7ed184e98)" data-fill-palette-color="accent"></rect><mask id="837ae29d-f38f-4835-86e5-eedf25610167"><g id="SvgjsG2913"><svg viewBox="0 0 395.52 128.6183766725027" height="128.6183766725027" width="395.52"><g><svg viewBox="0 0 599.0723684357055 194.81117399259682" height="128.6183766725027" width="395.52"><g><svg viewBox="0 0 395.52 194.81117399259682" height="194.81117399259682" width="395.52"><g id="SvgjsG2912"><svg viewBox="0 0 395.52 194.81117399259682" height="194.81117399259682" width="395.52" id="SvgjsSvg2911"><g><svg viewBox="0 0 395.52 85.68786507610037" height="85.68786507610037" width="395.52"><g transform="matrix(1,0,0,1,0,0)"><svg width="395.52" viewBox="4.96 -38.09 178.04 38.580000000000005" height="85.68786507610037" data-palette-color="url(#883edca6-575d-46c0-837f-651fbca12142)"></svg></g></svg></g><g transform="matrix(1,0,0,1,0,126.14556194751131)"><svg viewBox="0 0 395.52 68.66561204508552" height="68.66561204508552" width="395.52"><path d="M395.52 0l-11.444 34.333 11.444 34.333h-395.52l11.444-34.333-11.444-34.333z" opacity="1" fill="white"></path><g transform="matrix(1,0,0,1,75.54432,20.22884843570547)"><svg width="244.43135999999998" viewBox="3 -39.65 437.55 50.5" height="28.20791517367459" data-palette-color="#000000"><path d="M3-34.55L20.15-34.55 19.5-29.8 9.35-29.8 9.35-19.9 18.2-19.9 18.2-15.2 9.35-15.2 9.35-4.8 20.15-4.8 20.15 0 3 0 3-34.55ZM37.45-37.7L43.6-37.05 43.6 0 38.15 0 37.85-3.05Q35.5 0.75 31.8 0.75L31.8 0.75Q27.7 0.75 25.52-2.93 23.35-6.6 23.35-13.2L23.35-13.2Q23.35-17.4 24.47-20.58 25.6-23.75 27.6-25.45 29.6-27.15 32.2-27.15L32.2-27.15Q35.4-27.15 37.45-24.5L37.45-24.5 37.45-37.7ZM33.55-3.9Q34.7-3.9 35.62-4.7 36.55-5.5 37.45-7L37.45-7 37.45-19.85Q35.85-22.55 33.8-22.55L33.8-22.55Q29.75-22.55 29.75-13.25L29.75-13.25Q29.75-8.2 30.75-6.05 31.75-3.9 33.55-3.9L33.55-3.9ZM67.45-26.45L67.45 0 62.1 0 61.8-3.35Q60.55-1.3 59-0.28 57.45 0.75 55.4 0.75L55.4 0.75Q52.5 0.75 50.82-1.3 49.15-3.35 49.15-6.65L49.15-6.65 49.15-26.45 55.3-26.45 55.3-7Q55.3-3.9 57.4-3.9L57.4-3.9Q58.6-3.9 59.55-4.83 60.5-5.75 61.3-7.45L61.3-7.45 61.3-26.45 67.45-26.45ZM82.64-27.15Q84.79-27.15 86.54-26.43 88.29-25.7 89.89-24.15L89.89-24.15 87.24-20.65Q86.14-21.55 85.17-21.98 84.19-22.4 83.04-22.4L83.04-22.4Q80.79-22.4 79.64-20.28 78.49-18.15 78.49-13.1L78.49-13.1Q78.49-8.2 79.67-6.2 80.84-4.2 83.04-4.2L83.04-4.2Q84.14-4.2 85.04-4.6 85.94-5 87.14-5.85L87.14-5.85 89.89-2.3Q86.69 0.75 82.74 0.75L82.74 0.75Q77.64 0.75 74.82-2.73 71.99-6.2 71.99-13L71.99-13Q71.99-17.4 73.29-20.6 74.59-23.8 77.02-25.48 79.44-27.15 82.64-27.15L82.64-27.15ZM109.84-6.4Q109.84-5.1 110.19-4.48 110.54-3.85 111.34-3.45L111.34-3.45 110.09 0.65Q108.04 0.4 106.82-0.45 105.59-1.3 104.99-3.05L104.99-3.05Q102.69 0.75 98.54 0.75L98.54 0.75Q95.24 0.75 93.29-1.48 91.34-3.7 91.34-7.4L91.34-7.4Q91.34-11.7 94.02-13.95 96.69-16.2 101.79-16.2L101.79-16.2 103.84-16.2 103.84-18.05Q103.84-20.55 102.97-21.58 102.09-22.6 100.14-22.6L100.14-22.6Q97.79-22.6 94.29-21.3L94.29-21.3 92.89-25.3Q94.89-26.2 97.04-26.68 99.19-27.15 101.14-27.15L101.14-27.15Q109.84-27.15 109.84-18.35L109.84-18.35 109.84-6.4ZM100.19-3.7Q102.59-3.7 103.84-7L103.84-7 103.84-12.55 102.39-12.55Q99.84-12.55 98.67-11.4 97.49-10.25 97.49-7.85L97.49-7.85Q97.49-5.8 98.19-4.75 98.89-3.7 100.19-3.7L100.19-3.7ZM126.79-5L128.94-1.2Q126.49 0.75 123.19 0.75L123.19 0.75Q119.74 0.75 117.94-1.23 116.14-3.2 116.14-6.6L116.14-6.6 116.14-22 113.04-22 113.04-26.45 116.14-26.45 116.14-32.3 122.29-33.05 122.29-26.45 127.29-26.45 126.69-22 122.29-22 122.29-6.6Q122.29-4.2 124.34-4.2L124.34-4.2Q124.99-4.2 125.49-4.38 125.99-4.55 126.79-5L126.79-5ZM131.49-26.45L137.64-26.45 137.64 0 131.49 0 131.49-26.45ZM134.54-39.65Q136.19-39.65 137.21-38.6 138.24-37.55 138.24-35.9L138.24-35.9Q138.24-34.3 137.21-33.25 136.19-32.2 134.54-32.2L134.54-32.2Q132.89-32.2 131.86-33.25 130.84-34.3 130.84-35.9L130.84-35.9Q130.84-37.55 131.86-38.6 132.89-39.65 134.54-39.65L134.54-39.65ZM152.73-27.15Q157.73-27.15 160.51-23.65 163.28-20.15 163.28-13.25L163.28-13.25Q163.28-6.65 160.48-2.95 157.68 0.75 152.73 0.75L152.73 0.75Q147.78 0.75 144.98-2.88 142.18-6.5 142.18-13.25L142.18-13.25Q142.18-19.95 144.98-23.55 147.78-27.15 152.73-27.15L152.73-27.15ZM152.73-22.5Q150.58-22.5 149.58-20.38 148.58-18.25 148.58-13.25L148.58-13.25Q148.58-8.2 149.58-6.08 150.58-3.95 152.73-3.95L152.73-3.95Q154.88-3.95 155.88-6.08 156.88-8.2 156.88-13.25L156.88-13.25Q156.88-18.3 155.88-20.4 154.88-22.5 152.73-22.5L152.73-22.5ZM180.18-27.15Q183.03-27.15 184.68-25.1 186.33-23.05 186.33-19.6L186.33-19.6 186.33 0 180.18 0 180.18-18.9Q180.18-20.8 179.66-21.63 179.13-22.45 178.13-22.45L178.13-22.45Q176.03-22.45 173.98-18.5L173.98-18.5 173.98 0 167.83 0 167.83-26.45 173.18-26.45 173.63-23Q174.98-25.1 176.51-26.13 178.03-27.15 180.18-27.15L180.18-27.15ZM211.43-33.05Q210.03-33.05 209.35-32.3 208.68-31.55 208.68-30L208.68-30 208.68-26.45 213.73-26.45 213.03-22 208.68-22 208.68 0 202.53 0 202.53-22 199.23-22 199.23-26.45 202.53-26.45 202.53-29.8Q202.53-33.4 204.63-35.55 206.73-37.7 210.63-37.7L210.63-37.7Q213.68-37.7 216.53-36.2L216.53-36.2 214.83-32.2Q213.08-33.05 211.43-33.05L211.43-33.05ZM225.92-27.15Q230.92-27.15 233.7-23.65 236.47-20.15 236.47-13.25L236.47-13.25Q236.47-6.65 233.67-2.95 230.87 0.75 225.92 0.75L225.92 0.75Q220.97 0.75 218.17-2.88 215.37-6.5 215.37-13.25L215.37-13.25Q215.37-19.95 218.17-23.55 220.97-27.15 225.92-27.15L225.92-27.15ZM225.92-22.5Q223.77-22.5 222.77-20.38 221.77-18.25 221.77-13.25L221.77-13.25Q221.77-8.2 222.77-6.08 223.77-3.95 225.92-3.95L225.92-3.95Q228.07-3.95 229.07-6.08 230.07-8.2 230.07-13.25L230.07-13.25Q230.07-18.3 229.07-20.4 228.07-22.5 225.92-22.5L225.92-22.5ZM252.67-27.1Q253.82-27.1 254.72-26.75L254.72-26.75 253.72-20.85Q252.72-21.1 251.87-21.1L251.87-21.1Q249.97-21.1 248.87-19.45 247.77-17.8 247.17-14.55L247.17-14.55 247.17 0 241.02 0 241.02-26.45 246.37-26.45 246.82-21.85Q248.67-27.1 252.67-27.1L252.67-27.1ZM286.27-13.85Q286.27-13.4 286.12-11.3L286.12-11.3 272.47-11.3Q272.67-7.2 273.89-5.58 275.12-3.95 277.37-3.95L277.37-3.95Q278.92-3.95 280.17-4.48 281.42-5 282.87-6.15L282.87-6.15 285.42-2.65Q281.92 0.75 277.02 0.75L277.02 0.75Q271.82 0.75 269.04-2.85 266.27-6.45 266.27-13L266.27-13Q266.27-19.55 268.92-23.35 271.57-27.15 276.42-27.15L276.42-27.15Q281.07-27.15 283.67-23.78 286.27-20.4 286.27-13.85L286.27-13.85ZM280.27-15.3L280.27-15.65Q280.27-19.4 279.37-21.13 278.47-22.85 276.47-22.85L276.47-22.85Q274.62-22.85 273.64-21.18 272.67-19.5 272.47-15.3L272.47-15.3 280.27-15.3ZM302.96-26.45L309.01-26.45 302.11 0 294.86 0 287.76-26.45 294.11-26.45 298.46-4.95 302.96-26.45ZM330.76-13.85Q330.76-13.4 330.61-11.3L330.61-11.3 316.96-11.3Q317.16-7.2 318.39-5.58 319.61-3.95 321.86-3.95L321.86-3.95Q323.41-3.95 324.66-4.48 325.91-5 327.36-6.15L327.36-6.15 329.91-2.65Q326.41 0.75 321.51 0.75L321.51 0.75Q316.31 0.75 313.54-2.85 310.76-6.45 310.76-13L310.76-13Q310.76-19.55 313.41-23.35 316.06-27.15 320.91-27.15L320.91-27.15Q325.56-27.15 328.16-23.78 330.76-20.4 330.76-13.85L330.76-13.85ZM324.76-15.3L324.76-15.65Q324.76-19.4 323.86-21.13 322.96-22.85 320.96-22.85L320.96-22.85Q319.11-22.85 318.14-21.18 317.16-19.5 316.96-15.3L316.96-15.3 324.76-15.3ZM346.71-27.1Q347.86-27.1 348.76-26.75L348.76-26.75 347.76-20.85Q346.76-21.1 345.91-21.1L345.91-21.1Q344.01-21.1 342.91-19.45 341.81-17.8 341.21-14.55L341.21-14.55 341.21 0 335.06 0 335.06-26.45 340.41-26.45 340.86-21.85Q342.71-27.1 346.71-27.1L346.71-27.1ZM370.26-26.45L363.26 0.1Q361.96 4.9 359.06 7.65 356.16 10.4 351.31 10.85L351.31 10.85 350.61 6.5Q353.76 5.85 355.33 4.42 356.91 3 357.81 0L357.81 0 355.51 0 348.81-26.45 355.06-26.45 359.46-4.1 364.16-26.45 370.26-26.45ZM382.55-27.15Q387.55-27.15 390.33-23.65 393.1-20.15 393.1-13.25L393.1-13.25Q393.1-6.65 390.3-2.95 387.5 0.75 382.55 0.75L382.55 0.75Q377.6 0.75 374.8-2.88 372-6.5 372-13.25L372-13.25Q372-19.95 374.8-23.55 377.6-27.15 382.55-27.15L382.55-27.15ZM382.55-22.5Q380.4-22.5 379.4-20.38 378.4-18.25 378.4-13.25L378.4-13.25Q378.4-8.2 379.4-6.08 380.4-3.95 382.55-3.95L382.55-3.95Q384.7-3.95 385.7-6.08 386.7-8.2 386.7-13.25L386.7-13.25Q386.7-18.3 385.7-20.4 384.7-22.5 382.55-22.5L382.55-22.5ZM410-27.15Q412.85-27.15 414.5-25.1 416.15-23.05 416.15-19.6L416.15-19.6 416.15 0 410 0 410-18.9Q410-20.8 409.48-21.63 408.95-22.45 407.95-22.45L407.95-22.45Q405.85-22.45 403.8-18.5L403.8-18.5 403.8 0 397.65 0 397.65-26.45 403-26.45 403.45-23Q404.8-25.1 406.33-26.13 407.85-27.15 410-27.15L410-27.15ZM440.55-13.85Q440.55-13.4 440.4-11.3L440.4-11.3 426.75-11.3Q426.95-7.2 428.17-5.58 429.4-3.95 431.65-3.95L431.65-3.95Q433.2-3.95 434.45-4.48 435.7-5 437.15-6.15L437.15-6.15 439.7-2.65Q436.2 0.75 431.3 0.75L431.3 0.75Q426.1 0.75 423.32-2.85 420.55-6.45 420.55-13L420.55-13Q420.55-19.55 423.2-23.35 425.85-27.15 430.7-27.15L430.7-27.15Q435.35-27.15 437.95-23.78 440.55-20.4 440.55-13.85L440.55-13.85ZM434.55-15.3L434.55-15.65Q434.55-19.4 433.65-21.13 432.75-22.85 430.75-22.85L430.75-22.85Q428.9-22.85 427.92-21.18 426.95-19.5 426.75-15.3L426.75-15.3 434.55-15.3Z" opacity="1" transform="matrix(1,0,0,1,0,0)" fill="black" class="slogan-text-1" id="SvgjsPath2910"></path></svg></g></svg></g></svg></g></svg></g><g transform="matrix(1,0,0,1,415.74884843570544,5.786679303598788)"><svg viewBox="0 0 183.32352 183.23781538539924" height="183.23781538539924" width="183.32352"><g><svg xmlns="http://www.w3.org/2000/svg" xmlns:xlink="http://www.w3.org/1999/xlink" version="1.1" x="0" y="0" viewBox="0.7607695154586737 0.7749999999999999 30.439230484541326 30.425" enable-background="new 0 0 32 32" xml:space="preserve" height="183.23781538539924" width="183.32352" class="icon-icon-0" data-fill-palette-color="accent" id="SvgjsSvg2909"></svg></g></svg></g></svg></g><defs><mask></mask></defs><mask><g id="SvgjsG2908"><svg viewBox="0 0 395.52 128.6183766725027" height="128.6183766725027" width="395.52"><g><svg viewBox="0 0 599.0723684357055 194.81117399259682" height="128.6183766725027" width="395.52"><g><svg viewBox="0 0 395.52 194.81117399259682" height="194.81117399259682" width="395.52"><g id="SvgjsG2907"><svg viewBox="0 0 395.52 194.81117399259682" height="194.81117399259682" width="395.52" id="SvgjsSvg2906"><g><svg viewBox="0 0 395.52 85.68786507610037" height="85.68786507610037" width="395.52"><g transform="matrix(1,0,0,1,0,0)"><svg width="395.52" viewBox="4.96 -38.09 178.04 38.580000000000005" height="85.68786507610037" data-palette-color="url(#883edca6-575d-46c0-837f-651fbca12142)"><path d="M28.47 0L4.96 0 4.96-35.55 28.37-35.55 28.2-31.98 9.69-31.98 9.69-20.19 26.78-20.19 26.78-16.6 9.69-16.6 9.69-3.61 28.76-3.61 28.47 0ZM46.21 0.49L46.21 0.49Q42.5 0.49 39.96-1.26 37.42-3 36.13-6.1 34.84-9.2 34.84-13.28L34.84-13.28Q34.84-17.41 36.19-20.47 37.55-23.54 40.1-25.23 42.65-26.93 46.19-26.93L46.19-26.93Q48.73-26.93 50.47-26.17 52.22-25.42 53.34-24.22L53.34-24.22 53.22-28.15 53.22-37.6 57.81-38.09 57.81 0 53.98 0 53.73-2.88Q52.29-1.17 50.25-0.34 48.22 0.49 46.21 0.49ZM46.68-2.81L46.68-2.81Q48.75-2.81 50.47-3.5 52.19-4.2 53.37-5.62L53.37-5.62 53.37-20.63Q52.34-22.12 50.57-22.9 48.8-23.68 46.65-23.68L46.65-23.68Q44.82-23.68 43.47-22.99 42.11-22.29 41.21-20.96 40.31-19.63 39.85-17.71 39.4-15.8 39.4-13.35L39.4-13.35Q39.4-10.03 40.18-7.68 40.96-5.32 42.59-4.06 44.21-2.81 46.68-2.81ZM75.26 0.49L75.26 0.49Q70.58 0.49 68.17-2.1 65.77-4.69 65.77-9.86L65.77-9.86 65.77-26.42 70.21-26.42 70.21-9.96Q70.21-7.69 70.76-6.08 71.31-4.47 72.55-3.61 73.8-2.76 75.87-2.76L75.87-2.76Q77.97-2.76 79.4-3.38 80.83-4 81.75-4.83 82.66-5.66 83.15-6.32L83.15-6.32 83.15-26.42 87.57-26.42 87.57 0 83.74 0 83.49-3.3Q82.17-1.64 80.17-0.57 78.17 0.49 75.26 0.49ZM103.41 0.02L99.43 0.02 92.2-26.42 96.38-26.42 101.65-5.81 107.76-26.42 112.39-26.42 118.89-5.74 123.8-26.42 127.85-26.42 120.96 0.02 116.96 0.02 110.17-22.14 103.41 0.02ZM143.76 0.49L143.76 0.49Q140.2 0.49 137.33-1.15 134.46-2.78 132.79-5.85 131.12-8.91 131.12-13.13L131.12-13.13Q131.12-17.53 132.75-20.63 134.39-23.73 137.15-25.37 139.91-27 143.23-27L143.23-27Q146.47-27 148.77-25.56 151.06-24.12 152.3-21.46 153.53-18.8 153.53-15.14L153.53-15.14Q153.53-14.77 153.47-14.14 153.41-13.5 153.36-12.99 153.31-12.48 153.31-12.43L153.31-12.43 135.66-12.43Q135.85-9.06 137.01-6.93 138.17-4.81 140.07-3.81 141.96-2.81 144.33-2.81L144.33-2.81Q146.6-2.81 148.21-3.45 149.82-4.1 151.45-5.03L151.45-5.03 151.77-5.03 152.8-2.12Q151.16-1 148.85-0.26 146.55 0.49 143.76 0.49ZM135.73-15.31L135.73-15.31 149.72-15.31Q149.67-19.29 148.15-21.5 146.62-23.71 143.45-23.71L143.45-23.71Q140.25-23.71 138.16-21.45 136.07-19.19 135.73-15.31ZM171.74 0.49L171.74 0.49Q169.15 0.49 167.21-0.45 165.27-1.39 164.07-2.81L164.07-2.81 163.81 0 160.19 0 160.19-37.6 164.64-38.09 164.64-27.08 164.47-21.53Q165.37-23.73 166.67-24.91 167.98-26.1 169.52-26.55 171.06-27 172.57-27L172.57-27Q176.16-27 178.47-25.23 180.77-23.46 181.88-20.36 183-17.26 183-13.26L183-13.26Q183-9.13 181.68-6.04 180.36-2.95 177.86-1.23 175.35 0.49 171.74 0.49ZM171.47-2.81L171.47-2.81Q173.91-2.81 175.45-4.08 176.99-5.35 177.72-7.69 178.45-10.03 178.45-13.23L178.45-13.23Q178.45-16.28 177.86-18.64 177.26-21 175.84-22.34 174.43-23.68 171.94-23.68L171.94-23.68Q169.32-23.68 167.66-22.44 166-21.19 165.23-18.95 164.47-16.7 164.47-13.65L164.47-13.65 164.47-6.1Q165.27-5 166.34-4.27 167.42-3.54 168.73-3.17 170.03-2.81 171.47-2.81Z" opacity="1" transform="matrix(1,0,0,1,0,0)" fill="black" class="wordmark-text-0" id="SvgjsPath2905"></path></svg></g></svg></g><g transform="matrix(1,0,0,1,0,126.14556194751131)"><svg viewBox="0 0 395.52 68.66561204508552" height="68.66561204508552" width="395.52"><path d="M395.52 0l-11.444 34.333 11.444 34.333h-395.52l11.444-34.333-11.444-34.333z" opacity="1" fill="black"></path><g transform="matrix(1,0,0,1,75.54432,20.22884843570547)"><svg width="244.43135999999998" viewBox="3 -39.65 437.55 50.5" height="28.20791517367459" data-palette-color="#000000"><path d="M3-34.55L20.15-34.55 19.5-29.8 9.35-29.8 9.35-19.9 18.2-19.9 18.2-15.2 9.35-15.2 9.35-4.8 20.15-4.8 20.15 0 3 0 3-34.55ZM37.45-37.7L43.6-37.05 43.6 0 38.15 0 37.85-3.05Q35.5 0.75 31.8 0.75L31.8 0.75Q27.7 0.75 25.52-2.93 23.35-6.6 23.35-13.2L23.35-13.2Q23.35-17.4 24.47-20.58 25.6-23.75 27.6-25.45 29.6-27.15 32.2-27.15L32.2-27.15Q35.4-27.15 37.45-24.5L37.45-24.5 37.45-37.7ZM33.55-3.9Q34.7-3.9 35.62-4.7 36.55-5.5 37.45-7L37.45-7 37.45-19.85Q35.85-22.55 33.8-22.55L33.8-22.55Q29.75-22.55 29.75-13.25L29.75-13.25Q29.75-8.2 30.75-6.05 31.75-3.9 33.55-3.9L33.55-3.9ZM67.45-26.45L67.45 0 62.1 0 61.8-3.35Q60.55-1.3 59-0.28 57.45 0.75 55.4 0.75L55.4 0.75Q52.5 0.75 50.82-1.3 49.15-3.35 49.15-6.65L49.15-6.65 49.15-26.45 55.3-26.45 55.3-7Q55.3-3.9 57.4-3.9L57.4-3.9Q58.6-3.9 59.55-4.83 60.5-5.75 61.3-7.45L61.3-7.45 61.3-26.45 67.45-26.45ZM82.64-27.15Q84.79-27.15 86.54-26.43 88.29-25.7 89.89-24.15L89.89-24.15 87.24-20.65Q86.14-21.55 85.17-21.98 84.19-22.4 83.04-22.4L83.04-22.4Q80.79-22.4 79.64-20.28 78.49-18.15 78.49-13.1L78.49-13.1Q78.49-8.2 79.67-6.2 80.84-4.2 83.04-4.2L83.04-4.2Q84.14-4.2 85.04-4.6 85.94-5 87.14-5.85L87.14-5.85 89.89-2.3Q86.69 0.75 82.74 0.75L82.74 0.75Q77.64 0.75 74.82-2.73 71.99-6.2 71.99-13L71.99-13Q71.99-17.4 73.29-20.6 74.59-23.8 77.02-25.48 79.44-27.15 82.64-27.15L82.64-27.15ZM109.84-6.4Q109.84-5.1 110.19-4.48 110.54-3.85 111.34-3.45L111.34-3.45 110.09 0.65Q108.04 0.4 106.82-0.45 105.59-1.3 104.99-3.05L104.99-3.05Q102.69 0.75 98.54 0.75L98.54 0.75Q95.24 0.75 93.29-1.48 91.34-3.7 91.34-7.4L91.34-7.4Q91.34-11.7 94.02-13.95 96.69-16.2 101.79-16.2L101.79-16.2 103.84-16.2 103.84-18.05Q103.84-20.55 102.97-21.58 102.09-22.6 100.14-22.6L100.14-22.6Q97.79-22.6 94.29-21.3L94.29-21.3 92.89-25.3Q94.89-26.2 97.04-26.68 99.19-27.15 101.14-27.15L101.14-27.15Q109.84-27.15 109.84-18.35L109.84-18.35 109.84-6.4ZM100.19-3.7Q102.59-3.7 103.84-7L103.84-7 103.84-12.55 102.39-12.55Q99.84-12.55 98.67-11.4 97.49-10.25 97.49-7.85L97.49-7.85Q97.49-5.8 98.19-4.75 98.89-3.7 100.19-3.7L100.19-3.7ZM126.79-5L128.94-1.2Q126.49 0.75 123.19 0.75L123.19 0.75Q119.74 0.75 117.94-1.23 116.14-3.2 116.14-6.6L116.14-6.6 116.14-22 113.04-22 113.04-26.45 116.14-26.45 116.14-32.3 122.29-33.05 122.29-26.45 127.29-26.45 126.69-22 122.29-22 122.29-6.6Q122.29-4.2 124.34-4.2L124.34-4.2Q124.99-4.2 125.49-4.38 125.99-4.55 126.79-5L126.79-5ZM131.49-26.45L137.64-26.45 137.64 0 131.49 0 131.49-26.45ZM134.54-39.65Q136.19-39.65 137.21-38.6 138.24-37.55 138.24-35.9L138.24-35.9Q138.24-34.3 137.21-33.25 136.19-32.2 134.54-32.2L134.54-32.2Q132.89-32.2 131.86-33.25 130.84-34.3 130.84-35.9L130.84-35.9Q130.84-37.55 131.86-38.6 132.89-39.65 134.54-39.65L134.54-39.65ZM152.73-27.15Q157.73-27.15 160.51-23.65 163.28-20.15 163.28-13.25L163.28-13.25Q163.28-6.65 160.48-2.95 157.68 0.75 152.73 0.75L152.73 0.75Q147.78 0.75 144.98-2.88 142.18-6.5 142.18-13.25L142.18-13.25Q142.18-19.95 144.98-23.55 147.78-27.15 152.73-27.15L152.73-27.15ZM152.73-22.5Q150.58-22.5 149.58-20.38 148.58-18.25 148.58-13.25L148.58-13.25Q148.58-8.2 149.58-6.08 150.58-3.95 152.73-3.95L152.73-3.95Q154.88-3.95 155.88-6.08 156.88-8.2 156.88-13.25L156.88-13.25Q156.88-18.3 155.88-20.4 154.88-22.5 152.73-22.5L152.73-22.5ZM180.18-27.15Q183.03-27.15 184.68-25.1 186.33-23.05 186.33-19.6L186.33-19.6 186.33 0 180.18 0 180.18-18.9Q180.18-20.8 179.66-21.63 179.13-22.45 178.13-22.45L178.13-22.45Q176.03-22.45 173.98-18.5L173.98-18.5 173.98 0 167.83 0 167.83-26.45 173.18-26.45 173.63-23Q174.98-25.1 176.51-26.13 178.03-27.15 180.18-27.15L180.18-27.15ZM211.43-33.05Q210.03-33.05 209.35-32.3 208.68-31.55 208.68-30L208.68-30 208.68-26.45 213.73-26.45 213.03-22 208.68-22 208.68 0 202.53 0 202.53-22 199.23-22 199.23-26.45 202.53-26.45 202.53-29.8Q202.53-33.4 204.63-35.55 206.73-37.7 210.63-37.7L210.63-37.7Q213.68-37.7 216.53-36.2L216.53-36.2 214.83-32.2Q213.08-33.05 211.43-33.05L211.43-33.05ZM225.92-27.15Q230.92-27.15 233.7-23.65 236.47-20.15 236.47-13.25L236.47-13.25Q236.47-6.65 233.67-2.95 230.87 0.75 225.92 0.75L225.92 0.75Q220.97 0.75 218.17-2.88 215.37-6.5 215.37-13.25L215.37-13.25Q215.37-19.95 218.17-23.55 220.97-27.15 225.92-27.15L225.92-27.15ZM225.92-22.5Q223.77-22.5 222.77-20.38 221.77-18.25 221.77-13.25L221.77-13.25Q221.77-8.2 222.77-6.08 223.77-3.95 225.92-3.95L225.92-3.95Q228.07-3.95 229.07-6.08 230.07-8.2 230.07-13.25L230.07-13.25Q230.07-18.3 229.07-20.4 228.07-22.5 225.92-22.5L225.92-22.5ZM252.67-27.1Q253.82-27.1 254.72-26.75L254.72-26.75 253.72-20.85Q252.72-21.1 251.87-21.1L251.87-21.1Q249.97-21.1 248.87-19.45 247.77-17.8 247.17-14.55L247.17-14.55 247.17 0 241.02 0 241.02-26.45 246.37-26.45 246.82-21.85Q248.67-27.1 252.67-27.1L252.67-27.1ZM286.27-13.85Q286.27-13.4 286.12-11.3L286.12-11.3 272.47-11.3Q272.67-7.2 273.89-5.58 275.12-3.95 277.37-3.95L277.37-3.95Q278.92-3.95 280.17-4.48 281.42-5 282.87-6.15L282.87-6.15 285.42-2.65Q281.92 0.75 277.02 0.75L277.02 0.75Q271.82 0.75 269.04-2.85 266.27-6.45 266.27-13L266.27-13Q266.27-19.55 268.92-23.35 271.57-27.15 276.42-27.15L276.42-27.15Q281.07-27.15 283.67-23.78 286.27-20.4 286.27-13.85L286.27-13.85ZM280.27-15.3L280.27-15.65Q280.27-19.4 279.37-21.13 278.47-22.85 276.47-22.85L276.47-22.85Q274.62-22.85 273.64-21.18 272.67-19.5 272.47-15.3L272.47-15.3 280.27-15.3ZM302.96-26.45L309.01-26.45 302.11 0 294.86 0 287.76-26.45 294.11-26.45 298.46-4.95 302.96-26.45ZM330.76-13.85Q330.76-13.4 330.61-11.3L330.61-11.3 316.96-11.3Q317.16-7.2 318.39-5.58 319.61-3.95 321.86-3.95L321.86-3.95Q323.41-3.95 324.66-4.48 325.91-5 327.36-6.15L327.36-6.15 329.91-2.65Q326.41 0.75 321.51 0.75L321.51 0.75Q316.31 0.75 313.54-2.85 310.76-6.45 310.76-13L310.76-13Q310.76-19.55 313.41-23.35 316.06-27.15 320.91-27.15L320.91-27.15Q325.56-27.15 328.16-23.78 330.76-20.4 330.76-13.85L330.76-13.85ZM324.76-15.3L324.76-15.65Q324.76-19.4 323.86-21.13 322.96-22.85 320.96-22.85L320.96-22.85Q319.11-22.85 318.14-21.18 317.16-19.5 316.96-15.3L316.96-15.3 324.76-15.3ZM346.71-27.1Q347.86-27.1 348.76-26.75L348.76-26.75 347.76-20.85Q346.76-21.1 345.91-21.1L345.91-21.1Q344.01-21.1 342.91-19.45 341.81-17.8 341.21-14.55L341.21-14.55 341.21 0 335.06 0 335.06-26.45 340.41-26.45 340.86-21.85Q342.71-27.1 346.71-27.1L346.71-27.1ZM370.26-26.45L363.26 0.1Q361.96 4.9 359.06 7.65 356.16 10.4 351.31 10.85L351.31 10.85 350.61 6.5Q353.76 5.85 355.33 4.42 356.91 3 357.81 0L357.81 0 355.51 0 348.81-26.45 355.06-26.45 359.46-4.1 364.16-26.45 370.26-26.45ZM382.55-27.15Q387.55-27.15 390.33-23.65 393.1-20.15 393.1-13.25L393.1-13.25Q393.1-6.65 390.3-2.95 387.5 0.75 382.55 0.75L382.55 0.75Q377.6 0.75 374.8-2.88 372-6.5 372-13.25L372-13.25Q372-19.95 374.8-23.55 377.6-27.15 382.55-27.15L382.55-27.15ZM382.55-22.5Q380.4-22.5 379.4-20.38 378.4-18.25 378.4-13.25L378.4-13.25Q378.4-8.2 379.4-6.08 380.4-3.95 382.55-3.95L382.55-3.95Q384.7-3.95 385.7-6.08 386.7-8.2 386.7-13.25L386.7-13.25Q386.7-18.3 385.7-20.4 384.7-22.5 382.55-22.5L382.55-22.5ZM410-27.15Q412.85-27.15 414.5-25.1 416.15-23.05 416.15-19.6L416.15-19.6 416.15 0 410 0 410-18.9Q410-20.8 409.48-21.63 408.95-22.45 407.95-22.45L407.95-22.45Q405.85-22.45 403.8-18.5L403.8-18.5 403.8 0 397.65 0 397.65-26.45 403-26.45 403.45-23Q404.8-25.1 406.33-26.13 407.85-27.15 410-27.15L410-27.15ZM440.55-13.85Q440.55-13.4 440.4-11.3L440.4-11.3 426.75-11.3Q426.95-7.2 428.17-5.58 429.4-3.95 431.65-3.95L431.65-3.95Q433.2-3.95 434.45-4.48 435.7-5 437.15-6.15L437.15-6.15 439.7-2.65Q436.2 0.75 431.3 0.75L431.3 0.75Q426.1 0.75 423.32-2.85 420.55-6.45 420.55-13L420.55-13Q420.55-19.55 423.2-23.35 425.85-27.15 430.7-27.15L430.7-27.15Q435.35-27.15 437.95-23.78 440.55-20.4 440.55-13.85L440.55-13.85ZM434.55-15.3L434.55-15.65Q434.55-19.4 433.65-21.13 432.75-22.85 430.75-22.85L430.75-22.85Q428.9-22.85 427.92-21.18 426.95-19.5 426.75-15.3L426.75-15.3 434.55-15.3Z" opacity="1" transform="matrix(1,0,0,1,0,0)" fill="black" class="slogan-text-1" id="SvgjsPath2904"></path></svg></g></svg></g></svg></g></svg></g><g transform="matrix(1,0,0,1,415.74884843570544,5.786679303598788)"><svg viewBox="0 0 183.32352 183.23781538539924" height="183.23781538539924" width="183.32352"><g><svg xmlns="http://www.w3.org/2000/svg" xmlns:xlink="http://www.w3.org/1999/xlink" version="1.1" x="0" y="0" viewBox="0.7607695154586737 0.7749999999999999 30.439230484541326 30.425" enable-background="new 0 0 32 32" xml:space="preserve" height="183.23781538539924" width="183.32352" class="icon-icon-0" data-fill-palette-color="accent" id="SvgjsSvg2903"><g fill="black"><g fill="black"><path fill="black" d="M1.5 31.2C1.3 31.2 1.1 31.1 1 31 0.8 30.8 0.7 30.6 0.8 30.3L4.5 11.2C4.6 10.9 4.8 10.6 5.1 10.6L14.7 9.3C14.9 9.3 15.2 9.3 15.3 9.5L22.5 16.7C22.7 16.9 22.7 17.1 22.7 17.3L21.4 26.9C21.4 27.2 21.1 27.5 20.8 27.5L1.6 31.2zM5.8 12.1L2.4 29.6 19.9 26.2 21.1 17.5 14.4 10.8z"></path></g><g fill="black"><rect x="5.2" y="19.8" transform="matrix(-0.7071 -0.7071 0.7071 -0.7071 -8.3465 48.7211)" fill="black" width="1.5" height="12.6"></rect></g><g fill="black"><path fill="black" d="M12 23.1C11.2 23.1 10.4 22.8 9.8 22.2S8.9 20.9 8.9 20C8.9 19.2 9.2 18.4 9.8 17.8 11 16.6 13 16.6 14.1 17.8 15.3 19 15.3 20.9 14.1 22.1 13.6 22.8 12.8 23.1 12 23.1M12 18.4C11.6 18.4 11.2 18.6 10.9 18.9S10.4 19.6 10.4 20 10.6 20.8 10.9 21.1C11.5 21.7 12.5 21.7 13.1 21.1S13.7 19.5 13.1 18.9C12.8 18.6 12.4 18.4 12 18.4"></path></g><g fill="black"><path fill="black" d="M23.8 18.7C22.9 18.7 22 18.3 21.4 17.7L14.3 10.6C13 9.3 13 7.1 14.3 5.8L19.1 1C19.4 0.7 19.9 0.7 20.2 1L31 11.8C31.1 11.9 31.2 12.1 31.2 12.3S31.1 12.7 31 12.8L26.1 17.7C25.5 18.4 24.7 18.7 23.8 18.7M19.7 2.6L15.4 6.9C14.7 7.6 14.7 8.9 15.4 9.6L22.5 16.7C23.2 17.4 24.5 17.4 25.2 16.7L29.5 12.4z"></path></g></g></svg></g></svg></g></svg></g><defs><mask></mask></defs></svg><rect width="395.52" height="128.6183766725027" fill="black" stroke="none" visibility="hidden"></rect></g></mask><mask><g id="SvgjsG2902"><svg viewBox="0 0 395.52 128.6183766725027" height="128.6183766725027" width="395.52"><g><svg viewBox="0 0 599.0723684357055 194.81117399259682" height="128.6183766725027" width="395.52"><g><svg viewBox="0 0 395.52 194.81117399259682" height="194.81117399259682" width="395.52"><g id="SvgjsG2901"><svg viewBox="0 0 395.52 194.81117399259682" height="194.81117399259682" width="395.52" id="SvgjsSvg2900"><g><svg viewBox="0 0 395.52 85.68786507610037" height="85.68786507610037" width="395.52"><g transform="matrix(1,0,0,1,0,0)"><svg width="395.52" viewBox="4.96 -38.09 178.04 38.580000000000005" height="85.68786507610037" data-palette-color="url(#883edca6-575d-46c0-837f-651fbca12142)"></svg></g></svg></g><g transform="matrix(1,0,0,1,0,126.14556194751131)"><svg viewBox="0 0 395.52 68.66561204508552" height="68.66561204508552" width="395.52"><path d="M395.52 0l-11.444 34.333 11.444 34.333h-395.52l11.444-34.333-11.444-34.333z" opacity="1" fill="black"></path><g transform="matrix(1,0,0,1,75.54432,20.22884843570547)"><svg width="244.43135999999998" viewBox="3 -39.65 437.55 50.5" height="28.20791517367459" data-palette-color="#000000"><path d="M3-34.55L20.15-34.55 19.5-29.8 9.35-29.8 9.35-19.9 18.2-19.9 18.2-15.2 9.35-15.2 9.35-4.8 20.15-4.8 20.15 0 3 0 3-34.55ZM37.45-37.7L43.6-37.05 43.6 0 38.15 0 37.85-3.05Q35.5 0.75 31.8 0.75L31.8 0.75Q27.7 0.75 25.52-2.93 23.35-6.6 23.35-13.2L23.35-13.2Q23.35-17.4 24.47-20.58 25.6-23.75 27.6-25.45 29.6-27.15 32.2-27.15L32.2-27.15Q35.4-27.15 37.45-24.5L37.45-24.5 37.45-37.7ZM33.55-3.9Q34.7-3.9 35.62-4.7 36.55-5.5 37.45-7L37.45-7 37.45-19.85Q35.85-22.55 33.8-22.55L33.8-22.55Q29.75-22.55 29.75-13.25L29.75-13.25Q29.75-8.2 30.75-6.05 31.75-3.9 33.55-3.9L33.55-3.9ZM67.45-26.45L67.45 0 62.1 0 61.8-3.35Q60.55-1.3 59-0.28 57.45 0.75 55.4 0.75L55.4 0.75Q52.5 0.75 50.82-1.3 49.15-3.35 49.15-6.65L49.15-6.65 49.15-26.45 55.3-26.45 55.3-7Q55.3-3.9 57.4-3.9L57.4-3.9Q58.6-3.9 59.55-4.83 60.5-5.75 61.3-7.45L61.3-7.45 61.3-26.45 67.45-26.45ZM82.64-27.15Q84.79-27.15 86.54-26.43 88.29-25.7 89.89-24.15L89.89-24.15 87.24-20.65Q86.14-21.55 85.17-21.98 84.19-22.4 83.04-22.4L83.04-22.4Q80.79-22.4 79.64-20.28 78.49-18.15 78.49-13.1L78.49-13.1Q78.49-8.2 79.67-6.2 80.84-4.2 83.04-4.2L83.04-4.2Q84.14-4.2 85.04-4.6 85.94-5 87.14-5.85L87.14-5.85 89.89-2.3Q86.69 0.75 82.74 0.75L82.74 0.75Q77.64 0.75 74.82-2.73 71.99-6.2 71.99-13L71.99-13Q71.99-17.4 73.29-20.6 74.59-23.8 77.02-25.48 79.44-27.15 82.64-27.15L82.64-27.15ZM109.84-6.4Q109.84-5.1 110.19-4.48 110.54-3.85 111.34-3.45L111.34-3.45 110.09 0.65Q108.04 0.4 106.82-0.45 105.59-1.3 104.99-3.05L104.99-3.05Q102.69 0.75 98.54 0.75L98.54 0.75Q95.24 0.75 93.29-1.48 91.34-3.7 91.34-7.4L91.34-7.4Q91.34-11.7 94.02-13.95 96.69-16.2 101.79-16.2L101.79-16.2 103.84-16.2 103.84-18.05Q103.84-20.55 102.97-21.58 102.09-22.6 100.14-22.6L100.14-22.6Q97.79-22.6 94.29-21.3L94.29-21.3 92.89-25.3Q94.89-26.2 97.04-26.68 99.19-27.15 101.14-27.15L101.14-27.15Q109.84-27.15 109.84-18.35L109.84-18.35 109.84-6.4ZM100.19-3.7Q102.59-3.7 103.84-7L103.84-7 103.84-12.55 102.39-12.55Q99.84-12.55 98.67-11.4 97.49-10.25 97.49-7.85L97.49-7.85Q97.49-5.8 98.19-4.75 98.89-3.7 100.19-3.7L100.19-3.7ZM126.79-5L128.94-1.2Q126.49 0.75 123.19 0.75L123.19 0.75Q119.74 0.75 117.94-1.23 116.14-3.2 116.14-6.6L116.14-6.6 116.14-22 113.04-22 113.04-26.45 116.14-26.45 116.14-32.3 122.29-33.05 122.29-26.45 127.29-26.45 126.69-22 122.29-22 122.29-6.6Q122.29-4.2 124.34-4.2L124.34-4.2Q124.99-4.2 125.49-4.38 125.99-4.55 126.79-5L126.79-5ZM131.49-26.45L137.64-26.45 137.64 0 131.49 0 131.49-26.45ZM134.54-39.65Q136.19-39.65 137.21-38.6 138.24-37.55 138.24-35.9L138.24-35.9Q138.24-34.3 137.21-33.25 136.19-32.2 134.54-32.2L134.54-32.2Q132.89-32.2 131.86-33.25 130.84-34.3 130.84-35.9L130.84-35.9Q130.84-37.55 131.86-38.6 132.89-39.65 134.54-39.65L134.54-39.65ZM152.73-27.15Q157.73-27.15 160.51-23.65 163.28-20.15 163.28-13.25L163.28-13.25Q163.28-6.65 160.48-2.95 157.68 0.75 152.73 0.75L152.73 0.75Q147.78 0.75 144.98-2.88 142.18-6.5 142.18-13.25L142.18-13.25Q142.18-19.95 144.98-23.55 147.78-27.15 152.73-27.15L152.73-27.15ZM152.73-22.5Q150.58-22.5 149.58-20.38 148.58-18.25 148.58-13.25L148.58-13.25Q148.58-8.2 149.58-6.08 150.58-3.95 152.73-3.95L152.73-3.95Q154.88-3.95 155.88-6.08 156.88-8.2 156.88-13.25L156.88-13.25Q156.88-18.3 155.88-20.4 154.88-22.5 152.73-22.5L152.73-22.5ZM180.18-27.15Q183.03-27.15 184.68-25.1 186.33-23.05 186.33-19.6L186.33-19.6 186.33 0 180.18 0 180.18-18.9Q180.18-20.8 179.66-21.63 179.13-22.45 178.13-22.45L178.13-22.45Q176.03-22.45 173.98-18.5L173.98-18.5 173.98 0 167.83 0 167.83-26.45 173.18-26.45 173.63-23Q174.98-25.1 176.51-26.13 178.03-27.15 180.18-27.15L180.18-27.15ZM211.43-33.05Q210.03-33.05 209.35-32.3 208.68-31.55 208.68-30L208.68-30 208.68-26.45 213.73-26.45 213.03-22 208.68-22 208.68 0 202.53 0 202.53-22 199.23-22 199.23-26.45 202.53-26.45 202.53-29.8Q202.53-33.4 204.63-35.55 206.73-37.7 210.63-37.7L210.63-37.7Q213.68-37.7 216.53-36.2L216.53-36.2 214.83-32.2Q213.08-33.05 211.43-33.05L211.43-33.05ZM225.92-27.15Q230.92-27.15 233.7-23.65 236.47-20.15 236.47-13.25L236.47-13.25Q236.47-6.65 233.67-2.95 230.87 0.75 225.92 0.75L225.92 0.75Q220.97 0.75 218.17-2.88 215.37-6.5 215.37-13.25L215.37-13.25Q215.37-19.95 218.17-23.55 220.97-27.15 225.92-27.15L225.92-27.15ZM225.92-22.5Q223.77-22.5 222.77-20.38 221.77-18.25 221.77-13.25L221.77-13.25Q221.77-8.2 222.77-6.08 223.77-3.95 225.92-3.95L225.92-3.95Q228.07-3.95 229.07-6.08 230.07-8.2 230.07-13.25L230.07-13.25Q230.07-18.3 229.07-20.4 228.07-22.5 225.92-22.5L225.92-22.5ZM252.67-27.1Q253.82-27.1 254.72-26.75L254.72-26.75 253.72-20.85Q252.72-21.1 251.87-21.1L251.87-21.1Q249.97-21.1 248.87-19.45 247.77-17.8 247.17-14.55L247.17-14.55 247.17 0 241.02 0 241.02-26.45 246.37-26.45 246.82-21.85Q248.67-27.1 252.67-27.1L252.67-27.1ZM286.27-13.85Q286.27-13.4 286.12-11.3L286.12-11.3 272.47-11.3Q272.67-7.2 273.89-5.58 275.12-3.95 277.37-3.95L277.37-3.95Q278.92-3.95 280.17-4.48 281.42-5 282.87-6.15L282.87-6.15 285.42-2.65Q281.92 0.75 277.02 0.75L277.02 0.75Q271.82 0.75 269.04-2.85 266.27-6.45 266.27-13L266.27-13Q266.27-19.55 268.92-23.35 271.57-27.15 276.42-27.15L276.42-27.15Q281.07-27.15 283.67-23.78 286.27-20.4 286.27-13.85L286.27-13.85ZM280.27-15.3L280.27-15.65Q280.27-19.4 279.37-21.13 278.47-22.85 276.47-22.85L276.47-22.85Q274.62-22.85 273.64-21.18 272.67-19.5 272.47-15.3L272.47-15.3 280.27-15.3ZM302.96-26.45L309.01-26.45 302.11 0 294.86 0 287.76-26.45 294.11-26.45 298.46-4.95 302.96-26.45ZM330.76-13.85Q330.76-13.4 330.61-11.3L330.61-11.3 316.96-11.3Q317.16-7.2 318.39-5.58 319.61-3.95 321.86-3.95L321.86-3.95Q323.41-3.95 324.66-4.48 325.91-5 327.36-6.15L327.36-6.15 329.91-2.65Q326.41 0.75 321.51 0.75L321.51 0.75Q316.31 0.75 313.54-2.85 310.76-6.45 310.76-13L310.76-13Q310.76-19.55 313.41-23.35 316.06-27.15 320.91-27.15L320.91-27.15Q325.56-27.15 328.16-23.78 330.76-20.4 330.76-13.85L330.76-13.85ZM324.76-15.3L324.76-15.65Q324.76-19.4 323.86-21.13 322.96-22.85 320.96-22.85L320.96-22.85Q319.11-22.85 318.14-21.18 317.16-19.5 316.96-15.3L316.96-15.3 324.76-15.3ZM346.71-27.1Q347.86-27.1 348.76-26.75L348.76-26.75 347.76-20.85Q346.76-21.1 345.91-21.1L345.91-21.1Q344.01-21.1 342.91-19.45 341.81-17.8 341.21-14.55L341.21-14.55 341.21 0 335.06 0 335.06-26.45 340.41-26.45 340.86-21.85Q342.71-27.1 346.71-27.1L346.71-27.1ZM370.26-26.45L363.26 0.1Q361.96 4.9 359.06 7.65 356.16 10.4 351.31 10.85L351.31 10.85 350.61 6.5Q353.76 5.85 355.33 4.42 356.91 3 357.81 0L357.81 0 355.51 0 348.81-26.45 355.06-26.45 359.46-4.1 364.16-26.45 370.26-26.45ZM382.55-27.15Q387.55-27.15 390.33-23.65 393.1-20.15 393.1-13.25L393.1-13.25Q393.1-6.65 390.3-2.95 387.5 0.75 382.55 0.75L382.55 0.75Q377.6 0.75 374.8-2.88 372-6.5 372-13.25L372-13.25Q372-19.95 374.8-23.55 377.6-27.15 382.55-27.15L382.55-27.15ZM382.55-22.5Q380.4-22.5 379.4-20.38 378.4-18.25 378.4-13.25L378.4-13.25Q378.4-8.2 379.4-6.08 380.4-3.95 382.55-3.95L382.55-3.95Q384.7-3.95 385.7-6.08 386.7-8.2 386.7-13.25L386.7-13.25Q386.7-18.3 385.7-20.4 384.7-22.5 382.55-22.5L382.55-22.5ZM410-27.15Q412.85-27.15 414.5-25.1 416.15-23.05 416.15-19.6L416.15-19.6 416.15 0 410 0 410-18.9Q410-20.8 409.48-21.63 408.95-22.45 407.95-22.45L407.95-22.45Q405.85-22.45 403.8-18.5L403.8-18.5 403.8 0 397.65 0 397.65-26.45 403-26.45 403.45-23Q404.8-25.1 406.33-26.13 407.85-27.15 410-27.15L410-27.15ZM440.55-13.85Q440.55-13.4 440.4-11.3L440.4-11.3 426.75-11.3Q426.95-7.2 428.17-5.58 429.4-3.95 431.65-3.95L431.65-3.95Q433.2-3.95 434.45-4.48 435.7-5 437.15-6.15L437.15-6.15 439.7-2.65Q436.2 0.75 431.3 0.75L431.3 0.75Q426.1 0.75 423.32-2.85 420.55-6.45 420.55-13L420.55-13Q420.55-19.55 423.2-23.35 425.85-27.15 430.7-27.15L430.7-27.15Q435.35-27.15 437.95-23.78 440.55-20.4 440.55-13.85L440.55-13.85ZM434.55-15.3L434.55-15.65Q434.55-19.4 433.65-21.13 432.75-22.85 430.75-22.85L430.75-22.85Q428.9-22.85 427.92-21.18 426.95-19.5 426.75-15.3L426.75-15.3 434.55-15.3Z" opacity="1" transform="matrix(1,0,0,1,0,0)" fill="black" class="slogan-text-1" id="SvgjsPath2899"></path></svg></g></svg></g></svg></g></svg></g><g transform="matrix(1,0,0,1,415.74884843570544,5.786679303598788)"><svg viewBox="0 0 183.32352 183.23781538539924" height="183.23781538539924" width="183.32352"><g><svg xmlns="http://www.w3.org/2000/svg" xmlns:xlink="http://www.w3.org/1999/xlink" version="1.1" x="0" y="0" viewBox="0.7607695154586737 0.7749999999999999 30.439230484541326 30.425" enable-background="new 0 0 32 32" xml:space="preserve" height="183.23781538539924" width="183.32352" class="icon-icon-0" data-fill-palette-color="accent" id="SvgjsSvg2898"><g fill="black"><g fill="black"><path fill="black" d="M1.5 31.2C1.3 31.2 1.1 31.1 1 31 0.8 30.8 0.7 30.6 0.8 30.3L4.5 11.2C4.6 10.9 4.8 10.6 5.1 10.6L14.7 9.3C14.9 9.3 15.2 9.3 15.3 9.5L22.5 16.7C22.7 16.9 22.7 17.1 22.7 17.3L21.4 26.9C21.4 27.2 21.1 27.5 20.8 27.5L1.6 31.2zM5.8 12.1L2.4 29.6 19.9 26.2 21.1 17.5 14.4 10.8z"></path></g><g fill="black"><rect x="5.2" y="19.8" transform="matrix(-0.7071 -0.7071 0.7071 -0.7071 -8.3465 48.7211)" fill="black" width="1.5" height="12.6"></rect></g><g fill="black"><path fill="black" d="M12 23.1C11.2 23.1 10.4 22.8 9.8 22.2S8.9 20.9 8.9 20C8.9 19.2 9.2 18.4 9.8 17.8 11 16.6 13 16.6 14.1 17.8 15.3 19 15.3 20.9 14.1 22.1 13.6 22.8 12.8 23.1 12 23.1M12 18.4C11.6 18.4 11.2 18.6 10.9 18.9S10.4 19.6 10.4 20 10.6 20.8 10.9 21.1C11.5 21.7 12.5 21.7 13.1 21.1S13.7 19.5 13.1 18.9C12.8 18.6 12.4 18.4 12 18.4"></path></g><g fill="black"><path fill="black" d="M23.8 18.7C22.9 18.7 22 18.3 21.4 17.7L14.3 10.6C13 9.3 13 7.1 14.3 5.8L19.1 1C19.4 0.7 19.9 0.7 20.2 1L31 11.8C31.1 11.9 31.2 12.1 31.2 12.3S31.1 12.7 31 12.8L26.1 17.7C25.5 18.4 24.7 18.7 23.8 18.7M19.7 2.6L15.4 6.9C14.7 7.6 14.7 8.9 15.4 9.6L22.5 16.7C23.2 17.4 24.5 17.4 25.2 16.7L29.5 12.4z"></path></g></g></svg></g></svg></g></svg></g><defs><mask></mask></defs><mask><g id="SvgjsG2897"><svg viewBox="0 0 395.52 128.6183766725027" height="128.6183766725027" width="395.52"><g><svg viewBox="0 0 599.0723684357055 194.81117399259682" height="128.6183766725027" width="395.52"><g><svg viewBox="0 0 395.52 194.81117399259682" height="194.81117399259682" width="395.52"><g id="SvgjsG2896"><svg viewBox="0 0 395.52 194.81117399259682" height="194.81117399259682" width="395.52" id="SvgjsSvg2895"><g><svg viewBox="0 0 395.52 85.68786507610037" height="85.68786507610037" width="395.52"><g transform="matrix(1,0,0,1,0,0)"><svg width="395.52" viewBox="4.96 -38.09 178.04 38.580000000000005" height="85.68786507610037" data-palette-color="url(#883edca6-575d-46c0-837f-651fbca12142)"><path d="M28.47 0L4.96 0 4.96-35.55 28.37-35.55 28.2-31.98 9.69-31.98 9.69-20.19 26.78-20.19 26.78-16.6 9.69-16.6 9.69-3.61 28.76-3.61 28.47 0ZM46.21 0.49L46.21 0.49Q42.5 0.49 39.96-1.26 37.42-3 36.13-6.1 34.84-9.2 34.84-13.28L34.84-13.28Q34.84-17.41 36.19-20.47 37.55-23.54 40.1-25.23 42.65-26.93 46.19-26.93L46.19-26.93Q48.73-26.93 50.47-26.17 52.22-25.42 53.34-24.22L53.34-24.22 53.22-28.15 53.22-37.6 57.81-38.09 57.81 0 53.98 0 53.73-2.88Q52.29-1.17 50.25-0.34 48.22 0.49 46.21 0.49ZM46.68-2.81L46.68-2.81Q48.75-2.81 50.47-3.5 52.19-4.2 53.37-5.62L53.37-5.62 53.37-20.63Q52.34-22.12 50.57-22.9 48.8-23.68 46.65-23.68L46.65-23.68Q44.82-23.68 43.47-22.99 42.11-22.29 41.21-20.96 40.31-19.63 39.85-17.71 39.4-15.8 39.4-13.35L39.4-13.35Q39.4-10.03 40.18-7.68 40.96-5.32 42.59-4.06 44.21-2.81 46.68-2.81ZM75.26 0.49L75.26 0.49Q70.58 0.49 68.17-2.1 65.77-4.69 65.77-9.86L65.77-9.86 65.77-26.42 70.21-26.42 70.21-9.96Q70.21-7.69 70.76-6.08 71.31-4.47 72.55-3.61 73.8-2.76 75.87-2.76L75.87-2.76Q77.97-2.76 79.4-3.38 80.83-4 81.75-4.83 82.66-5.66 83.15-6.32L83.15-6.32 83.15-26.42 87.57-26.42 87.57 0 83.74 0 83.49-3.3Q82.17-1.64 80.17-0.57 78.17 0.49 75.26 0.49ZM103.41 0.02L99.43 0.02 92.2-26.42 96.38-26.42 101.65-5.81 107.76-26.42 112.39-26.42 118.89-5.74 123.8-26.42 127.85-26.42 120.96 0.02 116.96 0.02 110.17-22.14 103.41 0.02ZM143.76 0.49L143.76 0.49Q140.2 0.49 137.33-1.15 134.46-2.78 132.79-5.85 131.12-8.91 131.12-13.13L131.12-13.13Q131.12-17.53 132.75-20.63 134.39-23.73 137.15-25.37 139.91-27 143.23-27L143.23-27Q146.47-27 148.77-25.56 151.06-24.12 152.3-21.46 153.53-18.8 153.53-15.14L153.53-15.14Q153.53-14.77 153.47-14.14 153.41-13.5 153.36-12.99 153.31-12.48 153.31-12.43L153.31-12.43 135.66-12.43Q135.85-9.06 137.01-6.93 138.17-4.81 140.07-3.81 141.96-2.81 144.33-2.81L144.33-2.81Q146.6-2.81 148.21-3.45 149.82-4.1 151.45-5.03L151.45-5.03 151.77-5.03 152.8-2.12Q151.16-1 148.85-0.26 146.55 0.49 143.76 0.49ZM135.73-15.31L135.73-15.31 149.72-15.31Q149.67-19.29 148.15-21.5 146.62-23.71 143.45-23.71L143.45-23.71Q140.25-23.71 138.16-21.45 136.07-19.19 135.73-15.31ZM171.74 0.49L171.74 0.49Q169.15 0.49 167.21-0.45 165.27-1.39 164.07-2.81L164.07-2.81 163.81 0 160.19 0 160.19-37.6 164.64-38.09 164.64-27.08 164.47-21.53Q165.37-23.73 166.67-24.91 167.98-26.1 169.52-26.55 171.06-27 172.57-27L172.57-27Q176.16-27 178.47-25.23 180.77-23.46 181.88-20.36 183-17.26 183-13.26L183-13.26Q183-9.13 181.68-6.04 180.36-2.95 177.86-1.23 175.35 0.49 171.74 0.49ZM171.47-2.81L171.47-2.81Q173.91-2.81 175.45-4.08 176.99-5.35 177.72-7.69 178.45-10.03 178.45-13.23L178.45-13.23Q178.45-16.28 177.86-18.64 177.26-21 175.84-22.34 174.43-23.68 171.94-23.68L171.94-23.68Q169.32-23.68 167.66-22.44 166-21.19 165.23-18.95 164.47-16.7 164.47-13.65L164.47-13.65 164.47-6.1Q165.27-5 166.34-4.27 167.42-3.54 168.73-3.17 170.03-2.81 171.47-2.81Z" opacity="1" transform="matrix(1,0,0,1,0,0)" fill="black" class="wordmark-text-0" id="SvgjsPath2894"></path></svg></g></svg></g><g transform="matrix(1,0,0,1,0,126.14556194751131)"><svg viewBox="0 0 395.52 68.66561204508552" height="68.66561204508552" width="395.52"><path d="M395.52 0l-11.444 34.333 11.444 34.333h-395.52l11.444-34.333-11.444-34.333z" opacity="1" fill="black"></path><g transform="matrix(1,0,0,1,75.54432,20.22884843570547)"><svg width="244.43135999999998" viewBox="3 -39.65 437.55 50.5" height="28.20791517367459" data-palette-color="#000000"><path d="M3-34.55L20.15-34.55 19.5-29.8 9.35-29.8 9.35-19.9 18.2-19.9 18.2-15.2 9.35-15.2 9.35-4.8 20.15-4.8 20.15 0 3 0 3-34.55ZM37.45-37.7L43.6-37.05 43.6 0 38.15 0 37.85-3.05Q35.5 0.75 31.8 0.75L31.8 0.75Q27.7 0.75 25.52-2.93 23.35-6.6 23.35-13.2L23.35-13.2Q23.35-17.4 24.47-20.58 25.6-23.75 27.6-25.45 29.6-27.15 32.2-27.15L32.2-27.15Q35.4-27.15 37.45-24.5L37.45-24.5 37.45-37.7ZM33.55-3.9Q34.7-3.9 35.62-4.7 36.55-5.5 37.45-7L37.45-7 37.45-19.85Q35.85-22.55 33.8-22.55L33.8-22.55Q29.75-22.55 29.75-13.25L29.75-13.25Q29.75-8.2 30.75-6.05 31.75-3.9 33.55-3.9L33.55-3.9ZM67.45-26.45L67.45 0 62.1 0 61.8-3.35Q60.55-1.3 59-0.28 57.45 0.75 55.4 0.75L55.4 0.75Q52.5 0.75 50.82-1.3 49.15-3.35 49.15-6.65L49.15-6.65 49.15-26.45 55.3-26.45 55.3-7Q55.3-3.9 57.4-3.9L57.4-3.9Q58.6-3.9 59.55-4.83 60.5-5.75 61.3-7.45L61.3-7.45 61.3-26.45 67.45-26.45ZM82.64-27.15Q84.79-27.15 86.54-26.43 88.29-25.7 89.89-24.15L89.89-24.15 87.24-20.65Q86.14-21.55 85.17-21.98 84.19-22.4 83.04-22.4L83.04-22.4Q80.79-22.4 79.64-20.28 78.49-18.15 78.49-13.1L78.49-13.1Q78.49-8.2 79.67-6.2 80.84-4.2 83.04-4.2L83.04-4.2Q84.14-4.2 85.04-4.6 85.94-5 87.14-5.85L87.14-5.85 89.89-2.3Q86.69 0.75 82.74 0.75L82.74 0.75Q77.64 0.75 74.82-2.73 71.99-6.2 71.99-13L71.99-13Q71.99-17.4 73.29-20.6 74.59-23.8 77.02-25.48 79.44-27.15 82.64-27.15L82.64-27.15ZM109.84-6.4Q109.84-5.1 110.19-4.48 110.54-3.85 111.34-3.45L111.34-3.45 110.09 0.65Q108.04 0.4 106.82-0.45 105.59-1.3 104.99-3.05L104.99-3.05Q102.69 0.75 98.54 0.75L98.54 0.75Q95.24 0.75 93.29-1.48 91.34-3.7 91.34-7.4L91.34-7.4Q91.34-11.7 94.02-13.95 96.69-16.2 101.79-16.2L101.79-16.2 103.84-16.2 103.84-18.05Q103.84-20.55 102.97-21.58 102.09-22.6 100.14-22.6L100.14-22.6Q97.79-22.6 94.29-21.3L94.29-21.3 92.89-25.3Q94.89-26.2 97.04-26.68 99.19-27.15 101.14-27.15L101.14-27.15Q109.84-27.15 109.84-18.35L109.84-18.35 109.84-6.4ZM100.19-3.7Q102.59-3.7 103.84-7L103.84-7 103.84-12.55 102.39-12.55Q99.84-12.55 98.67-11.4 97.49-10.25 97.49-7.85L97.49-7.85Q97.49-5.8 98.19-4.75 98.89-3.7 100.19-3.7L100.19-3.7ZM126.79-5L128.94-1.2Q126.49 0.75 123.19 0.75L123.19 0.75Q119.74 0.75 117.94-1.23 116.14-3.2 116.14-6.6L116.14-6.6 116.14-22 113.04-22 113.04-26.45 116.14-26.45 116.14-32.3 122.29-33.05 122.29-26.45 127.29-26.45 126.69-22 122.29-22 122.29-6.6Q122.29-4.2 124.34-4.2L124.34-4.2Q124.99-4.2 125.49-4.38 125.99-4.55 126.79-5L126.79-5ZM131.49-26.45L137.64-26.45 137.64 0 131.49 0 131.49-26.45ZM134.54-39.65Q136.19-39.65 137.21-38.6 138.24-37.55 138.24-35.9L138.24-35.9Q138.24-34.3 137.21-33.25 136.19-32.2 134.54-32.2L134.54-32.2Q132.89-32.2 131.86-33.25 130.84-34.3 130.84-35.9L130.84-35.9Q130.84-37.55 131.86-38.6 132.89-39.65 134.54-39.65L134.54-39.65ZM152.73-27.15Q157.73-27.15 160.51-23.65 163.28-20.15 163.28-13.25L163.28-13.25Q163.28-6.65 160.48-2.95 157.68 0.75 152.73 0.75L152.73 0.75Q147.78 0.75 144.98-2.88 142.18-6.5 142.18-13.25L142.18-13.25Q142.18-19.95 144.98-23.55 147.78-27.15 152.73-27.15L152.73-27.15ZM152.73-22.5Q150.58-22.5 149.58-20.38 148.58-18.25 148.58-13.25L148.58-13.25Q148.58-8.2 149.58-6.08 150.58-3.95 152.73-3.95L152.73-3.95Q154.88-3.95 155.88-6.08 156.88-8.2 156.88-13.25L156.88-13.25Q156.88-18.3 155.88-20.4 154.88-22.5 152.73-22.5L152.73-22.5ZM180.18-27.15Q183.03-27.15 184.68-25.1 186.33-23.05 186.33-19.6L186.33-19.6 186.33 0 180.18 0 180.18-18.9Q180.18-20.8 179.66-21.63 179.13-22.45 178.13-22.45L178.13-22.45Q176.03-22.45 173.98-18.5L173.98-18.5 173.98 0 167.83 0 167.83-26.45 173.18-26.45 173.63-23Q174.98-25.1 176.51-26.13 178.03-27.15 180.18-27.15L180.18-27.15ZM211.43-33.05Q210.03-33.05 209.35-32.3 208.68-31.55 208.68-30L208.68-30 208.68-26.45 213.73-26.45 213.03-22 208.68-22 208.68 0 202.53 0 202.53-22 199.23-22 199.23-26.45 202.53-26.45 202.53-29.8Q202.53-33.4 204.63-35.55 206.73-37.7 210.63-37.7L210.63-37.7Q213.68-37.7 216.53-36.2L216.53-36.2 214.83-32.2Q213.08-33.05 211.43-33.05L211.43-33.05ZM225.92-27.15Q230.92-27.15 233.7-23.65 236.47-20.15 236.47-13.25L236.47-13.25Q236.47-6.65 233.67-2.95 230.87 0.75 225.92 0.75L225.92 0.75Q220.97 0.75 218.17-2.88 215.37-6.5 215.37-13.25L215.37-13.25Q215.37-19.95 218.17-23.55 220.97-27.15 225.92-27.15L225.92-27.15ZM225.92-22.5Q223.77-22.5 222.77-20.38 221.77-18.25 221.77-13.25L221.77-13.25Q221.77-8.2 222.77-6.08 223.77-3.95 225.92-3.95L225.92-3.95Q228.07-3.95 229.07-6.08 230.07-8.2 230.07-13.25L230.07-13.25Q230.07-18.3 229.07-20.4 228.07-22.5 225.92-22.5L225.92-22.5ZM252.67-27.1Q253.82-27.1 254.72-26.75L254.72-26.75 253.72-20.85Q252.72-21.1 251.87-21.1L251.87-21.1Q249.97-21.1 248.87-19.45 247.77-17.8 247.17-14.55L247.17-14.55 247.17 0 241.02 0 241.02-26.45 246.37-26.45 246.82-21.85Q248.67-27.1 252.67-27.1L252.67-27.1ZM286.27-13.85Q286.27-13.4 286.12-11.3L286.12-11.3 272.47-11.3Q272.67-7.2 273.89-5.58 275.12-3.95 277.37-3.95L277.37-3.95Q278.92-3.95 280.17-4.48 281.42-5 282.87-6.15L282.87-6.15 285.42-2.65Q281.92 0.75 277.02 0.75L277.02 0.75Q271.82 0.75 269.04-2.85 266.27-6.45 266.27-13L266.27-13Q266.27-19.55 268.92-23.35 271.57-27.15 276.42-27.15L276.42-27.15Q281.07-27.15 283.67-23.78 286.27-20.4 286.27-13.85L286.27-13.85ZM280.27-15.3L280.27-15.65Q280.27-19.4 279.37-21.13 278.47-22.85 276.47-22.85L276.47-22.85Q274.62-22.85 273.64-21.18 272.67-19.5 272.47-15.3L272.47-15.3 280.27-15.3ZM302.96-26.45L309.01-26.45 302.11 0 294.86 0 287.76-26.45 294.11-26.45 298.46-4.95 302.96-26.45ZM330.76-13.85Q330.76-13.4 330.61-11.3L330.61-11.3 316.96-11.3Q317.16-7.2 318.39-5.58 319.61-3.95 321.86-3.95L321.86-3.95Q323.41-3.95 324.66-4.48 325.91-5 327.36-6.15L327.36-6.15 329.91-2.65Q326.41 0.75 321.51 0.75L321.51 0.75Q316.31 0.75 313.54-2.85 310.76-6.45 310.76-13L310.76-13Q310.76-19.55 313.41-23.35 316.06-27.15 320.91-27.15L320.91-27.15Q325.56-27.15 328.16-23.78 330.76-20.4 330.76-13.85L330.76-13.85ZM324.76-15.3L324.76-15.65Q324.76-19.4 323.86-21.13 322.96-22.85 320.96-22.85L320.96-22.85Q319.11-22.85 318.14-21.18 317.16-19.5 316.96-15.3L316.96-15.3 324.76-15.3ZM346.71-27.1Q347.86-27.1 348.76-26.75L348.76-26.75 347.76-20.85Q346.76-21.1 345.91-21.1L345.91-21.1Q344.01-21.1 342.91-19.45 341.81-17.8 341.21-14.55L341.21-14.55 341.21 0 335.06 0 335.06-26.45 340.41-26.45 340.86-21.85Q342.71-27.1 346.71-27.1L346.71-27.1ZM370.26-26.45L363.26 0.1Q361.96 4.9 359.06 7.65 356.16 10.4 351.31 10.85L351.31 10.85 350.61 6.5Q353.76 5.85 355.33 4.42 356.91 3 357.81 0L357.81 0 355.51 0 348.81-26.45 355.06-26.45 359.46-4.1 364.16-26.45 370.26-26.45ZM382.55-27.15Q387.55-27.15 390.33-23.65 393.1-20.15 393.1-13.25L393.1-13.25Q393.1-6.65 390.3-2.95 387.5 0.75 382.55 0.75L382.55 0.75Q377.6 0.75 374.8-2.88 372-6.5 372-13.25L372-13.25Q372-19.95 374.8-23.55 377.6-27.15 382.55-27.15L382.55-27.15ZM382.55-22.5Q380.4-22.5 379.4-20.38 378.4-18.25 378.4-13.25L378.4-13.25Q378.4-8.2 379.4-6.08 380.4-3.95 382.55-3.95L382.55-3.95Q384.7-3.95 385.7-6.08 386.7-8.2 386.7-13.25L386.7-13.25Q386.7-18.3 385.7-20.4 384.7-22.5 382.55-22.5L382.55-22.5ZM410-27.15Q412.85-27.15 414.5-25.1 416.15-23.05 416.15-19.6L416.15-19.6 416.15 0 410 0 410-18.9Q410-20.8 409.48-21.63 408.95-22.45 407.95-22.45L407.95-22.45Q405.85-22.45 403.8-18.5L403.8-18.5 403.8 0 397.65 0 397.65-26.45 403-26.45 403.45-23Q404.8-25.1 406.33-26.13 407.85-27.15 410-27.15L410-27.15ZM440.55-13.85Q440.55-13.4 440.4-11.3L440.4-11.3 426.75-11.3Q426.95-7.2 428.17-5.58 429.4-3.95 431.65-3.95L431.65-3.95Q433.2-3.95 434.45-4.48 435.7-5 437.15-6.15L437.15-6.15 439.7-2.65Q436.2 0.75 431.3 0.75L431.3 0.75Q426.1 0.75 423.32-2.85 420.55-6.45 420.55-13L420.55-13Q420.55-19.55 423.2-23.35 425.85-27.15 430.7-27.15L430.7-27.15Q435.35-27.15 437.95-23.78 440.55-20.4 440.55-13.85L440.55-13.85ZM434.55-15.3L434.55-15.65Q434.55-19.4 433.65-21.13 432.75-22.85 430.75-22.85L430.75-22.85Q428.9-22.85 427.92-21.18 426.95-19.5 426.75-15.3L426.75-15.3 434.55-15.3Z" opacity="1" transform="matrix(1,0,0,1,0,0)" fill="black" class="slogan-text-1" id="SvgjsPath2893"></path></svg></g></svg></g></svg></g></svg></g><g transform="matrix(1,0,0,1,415.74884843570544,5.786679303598788)"><svg viewBox="0 0 183.32352 183.23781538539924" height="183.23781538539924" width="183.32352"><g><svg xmlns="http://www.w3.org/2000/svg" xmlns:xlink="http://www.w3.org/1999/xlink" version="1.1" x="0" y="0" viewBox="0.7607695154586737 0.7749999999999999 30.439230484541326 30.425" enable-background="new 0 0 32 32" xml:space="preserve" height="183.23781538539924" width="183.32352" class="icon-icon-0" data-fill-palette-color="accent" id="SvgjsSvg2892"><g fill="black"><g fill="black"><path fill="black" d="M1.5 31.2C1.3 31.2 1.1 31.1 1 31 0.8 30.8 0.7 30.6 0.8 30.3L4.5 11.2C4.6 10.9 4.8 10.6 5.1 10.6L14.7 9.3C14.9 9.3 15.2 9.3 15.3 9.5L22.5 16.7C22.7 16.9 22.7 17.1 22.7 17.3L21.4 26.9C21.4 27.2 21.1 27.5 20.8 27.5L1.6 31.2zM5.8 12.1L2.4 29.6 19.9 26.2 21.1 17.5 14.4 10.8z"></path></g><g fill="black"><rect x="5.2" y="19.8" transform="matrix(-0.7071 -0.7071 0.7071 -0.7071 -8.3465 48.7211)" fill="black" width="1.5" height="12.6"></rect></g><g fill="black"><path fill="black" d="M12 23.1C11.2 23.1 10.4 22.8 9.8 22.2S8.9 20.9 8.9 20C8.9 19.2 9.2 18.4 9.8 17.8 11 16.6 13 16.6 14.1 17.8 15.3 19 15.3 20.9 14.1 22.1 13.6 22.8 12.8 23.1 12 23.1M12 18.4C11.6 18.4 11.2 18.6 10.9 18.9S10.4 19.6 10.4 20 10.6 20.8 10.9 21.1C11.5 21.7 12.5 21.7 13.1 21.1S13.7 19.5 13.1 18.9C12.8 18.6 12.4 18.4 12 18.4"></path></g><g fill="black"><path fill="black" d="M23.8 18.7C22.9 18.7 22 18.3 21.4 17.7L14.3 10.6C13 9.3 13 7.1 14.3 5.8L19.1 1C19.4 0.7 19.9 0.7 20.2 1L31 11.8C31.1 11.9 31.2 12.1 31.2 12.3S31.1 12.7 31 12.8L26.1 17.7C25.5 18.4 24.7 18.7 23.8 18.7M19.7 2.6L15.4 6.9C14.7 7.6 14.7 8.9 15.4 9.6L22.5 16.7C23.2 17.4 24.5 17.4 25.2 16.7L29.5 12.4z"></path></g></g></svg></g></svg></g></svg></g><defs><mask></mask></defs></svg><rect width="395.52" height="128.6183766725027" fill="black" stroke="none" visibility="hidden"></rect></g></mask></svg><rect width="395.52" height="128.6183766725027" fill="black" stroke="none" visibility="hidden"></rect></g></mask></svg><rect width="395.52" height="128.6183766725027" fill="black" stroke="none" visibility="hidden"></rect></g></mask><linearGradient x1="0" x2="1" y1="0.578" y2="0.595" id="17521aed-243d-40f1-bf91-0f59f81894cb"><stop stop-color="#6ee2f5" offset="0"></stop><stop stop-color="#6454f0" offset="1"></stop></linearGradient></svg><rect width="395.52" height="128.6183766725027" fill="none" stroke="none" visibility="hidden"></rect></g></svg></g></svg>